<?xml version="1.0" standalone="no"?>
<!DOCTYPE svg PUBLIC "-//W3C//DTD SVG 20010904//EN"
 "http://www.w3.org/TR/2001/REC-SVG-20010904/DTD/svg10.dtd">
<svg version="1.0" xmlns="http://www.w3.org/2000/svg"
 width="1280.000000pt" height="1136.000000pt" viewBox="0 0 1280.000000 1136.000000"
 preserveAspectRatio="xMidYMid meet">
<metadata>
Created by potrace 1.15, written by Peter Selinger 2001-2017
</metadata>
<g transform="translate(0.000000,1136.000000) scale(0.100000,-0.100000)"
fill="#000000" stroke="none">
<path d="M3575 11253 c-371 -230 -902 -617 -1300 -950 -563 -470 -1055 -1011
-1422 -1563 -306 -460 -594 -1054 -703 -1450 -164 -592 -192 -1263 -79 -1885
76 -424 199 -799 417 -1270 33 -71 79 -179 102 -240 54 -140 191 -424 266
-551 78 -134 201 -311 287 -414 77 -92 256 -280 266 -280 4 0 25 53 48 117 35
99 215 609 468 1318 31 88 58 161 60 163 1 1 103 -176 225 -395 123 -219 228
-404 235 -411 9 -10 94 74 416 415 223 235 419 444 436 463 17 19 34 32 37 29
3 -3 74 -199 157 -435 83 -236 153 -431 155 -433 2 -2 212 159 468 358 365
284 466 367 471 389 6 28 41 80 48 72 2 -3 38 -131 80 -286 82 -304 101 -347
198 -464 77 -92 172 -166 294 -226 168 -83 264 -108 410 -108 149 0 269 24
450 91 113 42 323 145 462 227 128 75 151 92 178 131 17 26 33 11 17 -16 -11
-16 -3 -62 43 -277 31 -141 83 -378 115 -527 72 -332 86 -395 92 -400 2 -3
212 65 466 149 l462 154 0 -619 c0 -373 4 -619 9 -619 8 0 1108 380 1172 405
14 5 15 0 8 -42 -8 -50 -49 -305 -98 -608 -16 -99 -68 -418 -115 -708 -47
-291 -86 -534 -86 -541 0 -7 345 164 783 389 838 431 939 489 1248 722 234
176 385 308 600 522 367 368 609 694 835 1126 260 498 443 1139 516 1810 26
241 31 732 10 960 -48 506 -151 969 -320 1440 -36 100 -809 1665 -822 1665 -3
0 -41 -76 -85 -168 -172 -358 -404 -727 -659 -1042 -131 -162 -408 -472 -546
-611 -339 -340 -681 -566 -1034 -684 -290 -97 -611 -119 -843 -58 -83 22 -126
26 -280 30 -101 3 -183 8 -183 12 0 4 10 49 22 101 20 85 23 119 21 320 -1
213 -8 319 -34 558 l-12 104 334 334 334 334 -330 0 -331 0 -63 73 c-138 156
-304 250 -556 317 -233 61 -379 61 -574 -2 l-63 -20 -259 258 -259 259 0 -440
0 -440 -91 -100 c-125 -136 -322 -374 -477 -575 -2 -3 -8 3 -13 13 -6 10 -74
60 -152 111 -491 323 -851 666 -1176 1119 -260 363 -463 821 -561 1267 -62
286 -84 507 -84 850 1 282 12 447 49 690 8 52 13 95 12 96 -1 1 -78 -45 -172
-103z"/>
</g>
</svg>
