<?xml version="1.0" standalone="no"?>
<!DOCTYPE svg PUBLIC "-//W3C//DTD SVG 20010904//EN"
 "http://www.w3.org/TR/2001/REC-SVG-20010904/DTD/svg10.dtd">
<svg version="1.0" xmlns="http://www.w3.org/2000/svg"
 width="810.000000pt" height="1280.000000pt" viewBox="0 0 810.000000 1280.000000"
 preserveAspectRatio="xMidYMid meet">
<metadata>
Created by potrace 1.15, written by Peter Selinger 2001-2017
</metadata>
<g transform="translate(0.000000,1280.000000) scale(0.100000,-0.100000)"
fill="#000000" stroke="none">
<path d="M3003 12729 c4 -41 9 -258 13 -484 l6 -410 -118 -44 c-688 -252
-1306 -769 -1688 -1411 -134 -225 -254 -492 -321 -712 -26 -87 -27 -88 -58
-88 -18 0 -185 7 -372 15 -187 8 -363 15 -391 15 l-52 0 -6 -412 c-3 -227 -8
-689 -12 -1026 l-6 -613 463 3 463 3 43 -110 c347 -875 1013 -1549 1873 -1894
69 -28 126 -56 128 -63 1 -7 -65 -839 -147 -1848 -83 -1009 -182 -2226 -220
-2705 -39 -478 -73 -887 -76 -908 l-6 -39 823 6 c1264 9 2023 17 2027 22 2 2
-42 1202 -98 2666 -55 1465 -102 2699 -104 2742 l-2 79 120 49 c849 340 1527
1024 1860 1872 l44 111 108 -3 c59 -2 259 -9 443 -17 184 -7 338 -10 341 -7 4
4 9 454 13 1000 l6 992 -412 0 -413 0 -43 138 c-276 881 -879 1595 -1691 2002
-110 56 -325 146 -433 183 -10 4 -18 12 -18 19 0 7 11 215 25 462 13 247 22
452 20 456 -2 4 -307 10 -677 14 -370 3 -850 9 -1067 12 l-394 7 6 -74z m2332
-2193 c336 -221 598 -512 780 -867 30 -59 59 -118 65 -133 l10 -26 -293 0
-292 0 -28 51 c-101 179 -300 383 -552 564 l-27 20 11 210 c6 116 14 243 17
283 l6 73 96 -52 c54 -28 147 -84 207 -123z m-2285 17 c0 -60 3 -191 6 -293
l6 -185 -96 -78 c-108 -88 -246 -238 -335 -366 -33 -47 -66 -94 -73 -103 -12
-17 -31 -17 -293 -6 -154 6 -282 12 -283 14 -6 4 101 212 148 289 120 196 331
436 509 578 127 103 365 255 399 256 9 1 12 -27 12 -106z m2973 -2962 l87 -6
-64 -108 c-101 -167 -198 -290 -351 -443 -154 -155 -298 -268 -462 -362 l-108
-62 -6 87 c-4 49 -10 187 -14 308 l-7 220 78 60 c111 86 217 188 272 263 l47
64 220 -7 c121 -4 259 -10 308 -14z m-3297 -83 c71 -90 179 -195 288 -278 89
-67 94 -74 90 -103 -2 -18 -11 -122 -19 -232 -9 -110 -18 -222 -21 -248 l-6
-48 -76 41 c-312 168 -606 438 -806 740 -35 52 -76 116 -91 143 l-27 47 310 0
309 0 49 -62z"/>
</g>
</svg>
