<?xml version="1.0" standalone="no"?>
<!DOCTYPE svg PUBLIC "-//W3C//DTD SVG 20010904//EN"
 "http://www.w3.org/TR/2001/REC-SVG-20010904/DTD/svg10.dtd">
<svg version="1.0" xmlns="http://www.w3.org/2000/svg"
 width="1280.000000pt" height="1280.000000pt" viewBox="0 0 1280.000000 1280.000000"
 preserveAspectRatio="xMidYMid meet">
<metadata>
Created by potrace 1.15, written by Peter Selinger 2001-2017
</metadata>
<g transform="translate(0.000000,1280.000000) scale(0.100000,-0.100000)"
fill="#000000" stroke="none">
<path d="M5150 12564 c-297 -38 -649 -166 -831 -304 -138 -104 -299 -300 -383
-468 -49 -97 -92 -227 -111 -336 -17 -97 -21 -296 -6 -296 6 0 164 82 352 181
l342 182 101 101 c109 109 181 157 308 206 232 90 475 72 659 -48 133 -87 220
-212 255 -367 9 -38 23 -97 31 -130 24 -98 27 -300 8 -605 -10 -154 -16 -283
-13 -285 2 -2 32 15 66 39 63 45 140 84 344 180 65 30 155 79 200 108 l83 54
-1 330 c-1 368 -7 425 -71 616 -43 130 -109 236 -194 310 -34 29 -109 97 -168
151 -234 217 -393 312 -611 363 -64 15 -292 26 -360 18z"/>
<path d="M5109 11659 c-501 -51 -1262 -614 -1684 -1244 -64 -96 -155 -268
-155 -293 0 -9 65 -12 264 -12 l264 0 58 83 c31 45 94 129 138 187 254 329
566 559 957 703 215 79 456 115 692 104 70 -4 127 -4 127 -1 0 2 -14 41 -31
85 -37 96 -114 215 -172 264 -110 95 -284 142 -458 124z"/>
<path d="M9350 11520 c-36 -5 -101 -16 -145 -25 -241 -48 -528 -193 -624 -314
l-31 -38 453 -157 452 -156 103 0 c78 0 118 -5 165 -21 241 -81 439 -342 455
-599 11 -176 -104 -367 -389 -646 -128 -124 -302 -270 -436 -364 -35 -24 -63
-47 -63 -50 0 -3 148 -63 329 -133 l330 -127 50 49 c28 27 133 121 233 207
303 262 456 427 517 559 16 33 39 103 52 155 21 83 24 118 24 285 0 147 -4
209 -18 273 -76 345 -255 637 -512 837 -180 139 -340 208 -580 251 -105 18
-283 25 -365 14z"/>
<path d="M6625 11338 c3 -29 12 -158 21 -287 22 -341 28 -352 359 -691 121
-124 223 -225 227 -225 8 0 371 344 376 357 13 31 -381 426 -634 637 -136 113
-317 250 -344 259 -7 3 -8 -16 -5 -50z"/>
<path d="M7565 11050 c-116 -13 -227 -41 -217 -54 34 -45 350 -436 369 -457
l24 -26 167 28 c200 34 262 35 479 9 288 -35 452 -80 653 -176 255 -122 390
-235 613 -509 71 -88 133 -161 138 -163 13 -5 127 139 159 203 66 130 63 227
-13 378 -32 64 -60 102 -131 173 -190 189 -459 332 -936 496 -162 55 -191 61
-370 84 -145 19 -804 28 -935 14z"/>
<path d="M4231 10413 l-293 -298 6 -206 c4 -113 17 -365 30 -560 14 -195 28
-441 32 -546 l7 -193 51 -32 c28 -18 125 -92 216 -163 322 -255 463 -355 477
-341 16 15 -52 830 -152 1831 -25 248 -52 528 -60 624 -8 95 -16 175 -18 178
-3 2 -136 -130 -296 -294z"/>
<path d="M6575 10627 c-114 -69 -509 -263 -720 -353 -436 -186 -811 -306
-1034 -330 l-63 -7 6 -96 c3 -53 8 -150 11 -216 3 -66 8 -139 11 -162 l5 -43
51 0 c402 0 1327 365 2019 797 60 37 109 70 108 73 0 3 -25 23 -56 45 -88 63
-170 159 -217 255 l-41 86 -80 -49z"/>
<path d="M8050 10469 c-266 -10 -257 -8 -390 -107 -175 -130 -273 -216 -529
-465 -130 -126 -280 -268 -333 -316 l-98 -86 0 -459 0 -459 23 19 c12 11 90
78 172 149 521 449 928 818 1233 1120 237 234 512 522 520 544 3 9 -33 25 -98
42 -64 16 -307 25 -500 18z"/>
<path d="M3370 10000 c-210 -17 -580 -79 -711 -120 -75 -23 -135 -58 -123 -70
5 -5 106 -88 224 -184 l215 -176 130 0 c72 0 225 7 340 15 116 8 257 15 314
15 l104 0 -7 89 c-12 165 -68 416 -94 426 -29 11 -273 14 -392 5z"/>
<path d="M6210 9785 l-355 -154 -6 -148 c-12 -292 -9 -762 6 -874 24 -182 80
-380 143 -504 98 -195 299 -382 500 -466 165 -68 446 -105 697 -90 l109 6 8
39 c13 62 73 178 133 258 30 40 107 126 172 190 64 65 114 120 111 123 -7 7
-212 51 -298 64 -41 6 -196 20 -343 31 -305 24 -354 31 -410 62 -101 57 -102
70 -102 931 1 378 -2 687 -5 687 -3 -1 -165 -70 -360 -155z"/>
<path d="M1510 9920 c-322 -44 -624 -196 -830 -417 -171 -183 -303 -448 -329
-663 -28 -224 10 -535 95 -770 72 -200 191 -400 292 -490 47 -42 189 -127 198
-118 1 2 19 170 40 373 27 265 37 404 35 490 -9 318 -7 367 17 436 60 175 191
313 383 403 100 48 177 66 275 66 166 0 339 -52 507 -154 132 -79 220 -146
391 -298 150 -133 185 -162 190 -157 1 2 36 169 76 370 l73 367 -28 36 c-43
56 -200 191 -300 258 -177 119 -384 203 -605 248 -119 24 -373 35 -480 20z"/>
<path d="M7930 9528 l-182 -203 55 -51 c270 -251 998 -642 1634 -878 144 -53
371 -122 378 -114 1 1 12 109 24 238 12 129 23 246 24 259 2 23 -6 27 -118 61
-174 53 -304 107 -530 219 -327 162 -727 402 -981 587 -63 46 -116 84 -118 84
-2 0 -85 -91 -186 -202z"/>
<path d="M3153 9383 l-132 -4 -6 -47 c-45 -336 -134 -675 -354 -1342 -118
-362 -184 -571 -179 -576 3 -2 95 -69 273 -197 118 -85 200 -131 219 -124 7 3
20 29 28 59 9 29 45 148 81 263 91 294 108 351 176 600 94 344 202 804 246
1040 14 76 45 301 45 327 0 8 -93 8 -397 1z"/>
<path d="M1562 9126 c-492 -511 -655 -1401 -407 -2221 57 -187 175 -487 204
-518 4 -4 32 25 62 65 68 93 198 249 257 310 30 31 43 52 40 65 -118 420 -161
736 -138 1013 36 444 188 797 468 1090 l77 81 -80 24 c-44 13 -141 42 -215 64
-74 22 -156 47 -182 54 l-46 15 -40 -42z"/>
<path d="M10253 8949 l-221 -159 -7 -67 c-10 -107 -32 -230 -60 -333 -52 -194
-92 -425 -75 -435 10 -6 491 -67 495 -63 9 8 46 241 60 372 14 141 40 753 33
812 l-3 32 -222 -159z"/>
<path d="M3550 8873 c0 -10 -28 -177 -62 -372 l-63 -353 31 -27 c198 -168 592
-497 639 -533 148 -112 349 -222 500 -272 44 -15 127 -34 185 -43 234 -35 500
36 706 188 119 88 404 385 404 422 1 26 -124 723 -130 730 -4 4 -58 -47 -121
-114 -262 -281 -505 -469 -670 -520 -59 -18 -74 -19 -130 -9 -167 30 -345 120
-579 293 -146 108 -256 204 -483 422 -115 110 -213 202 -218 203 -5 2 -9 -5
-9 -15z"/>
<path d="M8599 8628 c-29 -22 -155 -100 -279 -174 -315 -189 -464 -298 -642
-474 -196 -194 -263 -304 -303 -495 -22 -106 -22 -295 0 -398 52 -250 208
-549 371 -715 72 -72 74 -74 112 -67 22 3 129 1 238 -5 319 -18 519 -27 523
-24 2 2 -59 99 -136 216 -261 396 -382 634 -399 785 -6 44 -3 61 20 107 36 73
87 115 326 271 470 305 618 414 776 570 63 62 114 117 114 122 0 4 -60 36
-132 70 -73 34 -223 104 -334 156 l-200 94 -55 -39z"/>
<path d="M10607 8368 c-4 -18 -23 -142 -43 -275 l-36 -243 31 -35 c63 -72 311
-455 454 -702 87 -148 127 -242 165 -382 24 -89 26 -111 26 -321 1 -249 -12
-364 -65 -568 -34 -132 -34 -132 52 -132 193 0 331 84 414 254 62 126 70 176
69 406 0 179 -4 222 -27 341 -63 324 -212 731 -339 925 -81 124 -658 764 -689
764 -4 0 -9 -15 -12 -32z"/>
<path d="M8675 7672 l-419 -296 59 -13 c272 -57 1043 -158 1895 -248 401 -42
589 -64 613 -71 14 -4 17 1 17 29 0 48 -78 200 -187 367 -49 74 -110 170 -137
212 -43 70 -52 78 -94 92 -111 34 -203 48 -637 91 -467 47 -588 68 -657 116
-14 11 -28 19 -30 19 -1 -1 -192 -134 -423 -298z"/>
<path d="M1680 7778 c1 -7 38 -216 83 -465 l83 -451 160 -81 c233 -116 411
-240 887 -618 l117 -94 424 118 c233 65 426 122 428 128 13 38 -1394 1026
-1862 1307 -111 67 -301 168 -315 168 -3 0 -5 -6 -5 -12z"/>
<path d="M11509 7572 c10 -26 82 -219 161 -430 134 -360 144 -384 180 -412
164 -130 187 -409 56 -675 -114 -229 -292 -374 -526 -427 -76 -17 -128 -22
-255 -22 -193 0 -305 19 -539 94 -86 27 -175 53 -198 56 l-41 7 6 -46 c4 -26
42 -154 86 -284 44 -131 87 -274 96 -318 9 -44 18 -81 20 -83 9 -10 141 -32
270 -46 524 -58 913 -41 1144 50 347 137 596 477 667 914 22 129 14 396 -15
531 -93 432 -332 775 -683 980 -102 60 -289 128 -415 152 l-32 6 18 -47z"/>
<path d="M4120 7373 c0 -57 23 -310 41 -448 25 -193 23 -390 -6 -470 -58 -164
-198 -265 -480 -347 -197 -57 -569 -121 -945 -163 -217 -25 -205 -12 -112
-110 82 -84 162 -188 307 -394 l80 -113 135 6 c401 19 771 77 982 152 392 140
607 396 683 814 20 108 32 571 18 699 l-8 73 -330 154 c-181 85 -337 157 -347
160 -13 4 -18 0 -18 -13z"/>
<path d="M9560 7018 c0 -24 5 -131 10 -238 36 -710 147 -1353 313 -1820 60
-167 65 -180 75 -180 15 0 152 93 247 168 49 39 108 82 132 94 24 13 43 28 43
33 0 6 -18 65 -41 130 -160 473 -278 1201 -279 1723 l0 92 -27 0 c-16 0 -120
9 -233 20 -266 26 -240 28 -240 -22z"/>
<path d="M1777 6693 c-163 -136 -457 -533 -591 -801 -33 -65 -89 -212 -84
-217 2 -2 46 10 98 25 52 15 201 58 330 95 151 44 243 75 259 89 43 39 148
170 231 291 90 131 132 185 198 257 36 39 42 50 33 66 -29 54 -164 140 -315
202 -54 22 -99 40 -100 40 -1 0 -27 -21 -59 -47z"/>
<path d="M8150 6221 c-429 -94 -728 -417 -937 -1009 l-43 -124 57 -62 c379
-406 454 -484 457 -473 2 6 14 53 26 102 29 116 79 259 142 409 98 235 179
377 255 446 l46 43 101 -7 c167 -11 353 -46 740 -142 252 -62 531 -120 629
-129 79 -8 77 -15 47 128 -66 323 -158 593 -204 601 -12 3 -48 9 -81 16 -33 6
-139 35 -235 65 -383 117 -515 144 -755 151 -132 3 -175 1 -245 -15z"/>
<path d="M2022 6005 c-72 -101 -134 -190 -137 -197 -5 -13 52 -86 384 -488
315 -382 622 -824 752 -1083 28 -54 53 -97 57 -95 61 32 118 51 222 73 149 31
185 41 227 67 l33 19 -37 72 c-159 317 -494 775 -1035 1414 -106 125 -224 267
-261 316 -38 48 -69 87 -70 86 -1 0 -62 -83 -135 -184z"/>
<path d="M4720 5713 c-14 -8 -160 -84 -324 -168 l-299 -153 104 -77 c111 -82
271 -180 391 -241 154 -77 315 -213 363 -304 56 -105 8 -232 -312 -820 -135
-248 -343 -651 -343 -663 0 -2 105 -7 233 -11 233 -7 543 6 577 24 10 5 46 53
82 107 241 364 380 687 433 1002 13 80 16 139 12 255 -7 224 -43 338 -156 504
-148 216 -304 344 -596 489 -132 65 -142 69 -165 56z"/>
<path d="M1515 5631 c-312 -92 -385 -117 -534 -187 -226 -107 -398 -250 -494
-411 -132 -222 -211 -593 -186 -878 36 -417 208 -761 487 -970 313 -235 698
-302 1170 -204 56 12 102 24 101 28 0 3 -39 25 -87 48 -278 134 -603 433 -805
738 -164 249 -244 493 -218 666 32 210 171 353 416 429 138 43 620 162 820
203 28 5 51 11 53 13 3 2 -457 605 -461 603 -1 -1 -119 -36 -262 -78z"/>
<path d="M8360 5416 c0 -22 167 -351 295 -581 204 -367 427 -754 645 -1120
111 -187 232 -393 268 -457 35 -65 68 -118 72 -118 20 0 64 136 170 535 34
127 71 251 81 276 l20 45 -36 85 c-56 130 -137 278 -330 599 -97 162 -204 349
-236 416 l-60 121 -372 88 c-205 49 -405 96 -444 105 -53 13 -73 14 -73 6z"/>
<path d="M6569 5059 c-248 -12 -512 -67 -664 -138 -62 -29 -84 -44 -88 -62
-14 -61 -109 -700 -104 -705 3 -3 27 6 55 20 186 94 566 180 802 180 94 1 111
-2 165 -27 121 -56 232 -166 360 -357 74 -110 191 -352 248 -510 46 -128 117
-393 117 -436 0 -13 4 -24 8 -24 19 0 98 79 194 193 147 177 226 263 263 288
l32 22 -12 76 c-74 456 -370 1009 -685 1279 -201 172 -355 216 -691 201z"/>
<path d="M10429 4911 c-201 -142 -530 -296 -646 -302 -24 -2 -43 -6 -43 -10 0
-10 249 -430 264 -446 24 -26 233 53 420 159 258 147 534 364 611 481 10 15
16 29 14 32 -2 2 -87 15 -189 29 -199 28 -283 47 -340 76 l-37 19 -54 -38z"/>
<path d="M1337 4700 c-152 -147 -193 -210 -204 -312 -7 -65 16 -176 54 -270
133 -329 587 -784 1078 -1083 292 -178 601 -304 813 -333 60 -8 62 -8 62 14 0
34 -37 146 -82 248 -56 128 -94 234 -102 282 l-7 41 -97 33 c-446 149 -811
432 -1074 831 -114 173 -192 337 -262 552 l-42 129 -137 -132z"/>
<path d="M4674 4555 c-51 -13 -159 -44 -240 -70 -82 -26 -165 -52 -184 -57
-58 -17 -482 -174 -680 -253 -407 -161 -972 -347 -1214 -400 l-79 -18 39 -20
c21 -11 206 -106 410 -212 l371 -193 94 18 c323 63 902 241 1090 335 95 48
118 73 258 284 214 322 282 451 294 559 l6 52 -37 0 c-20 -1 -78 -12 -128 -25z"/>
<path d="M10286 4155 c-137 -51 -252 -97 -256 -102 -4 -4 -14 -62 -24 -128
-27 -192 -74 -411 -112 -525 -43 -130 -135 -322 -199 -415 -206 -302 -512
-535 -892 -681 -40 -15 -73 -33 -73 -38 0 -31 53 -117 98 -158 62 -58 188
-141 300 -198 l83 -42 73 26 c602 220 1209 1213 1271 2079 7 100 -2 277 -14
277 -3 -1 -118 -43 -255 -95z"/>
<path d="M8798 4161 c-228 -154 -607 -523 -904 -881 -243 -293 -563 -780 -522
-795 7 -2 107 -38 221 -78 l208 -74 46 89 c91 178 252 400 476 658 55 63 250
264 433 445 l333 330 -102 177 c-56 98 -105 178 -109 178 -3 0 -39 -22 -80
-49z"/>
<path d="M6815 4155 c-70 -190 -110 -284 -485 -1145 -338 -776 -545 -1268
-536 -1277 1 -1 89 31 196 71 107 40 291 108 409 152 168 62 215 84 221 101
28 71 116 253 201 413 177 333 304 622 352 798 l26 93 -166 357 c-91 196 -176
380 -188 407 -20 42 -24 47 -30 30z"/>
<path d="M3422 3276 l-243 -91 7 -50 c38 -284 223 -749 385 -969 l51 -69 35
54 c19 30 77 140 130 244 52 105 102 197 109 206 12 14 12 21 -2 55 -59 140
-175 515 -204 657 -6 31 -14 57 -18 56 -4 -1 -116 -42 -250 -93z"/>
<path d="M4420 3150 c-80 -4 -244 -11 -366 -15 l-221 -8 88 -231 88 -231 168
1 c92 0 242 6 333 12 91 7 284 12 430 12 473 0 710 -28 1048 -126 15 -4 22 -2
22 8 0 41 37 128 86 199 71 105 103 169 111 224 3 25 4 45 2 45 -2 0 -71 13
-154 29 -202 40 -442 69 -665 81 -200 11 -736 11 -970 0z"/>
<path d="M10330 2798 c-250 -478 -341 -621 -485 -763 -120 -118 -317 -233
-465 -271 -169 -43 -323 23 -529 227 -207 206 -416 542 -501 807 l-17 54 -217
-297 -218 -297 12 -62 c18 -91 76 -259 122 -350 189 -375 526 -612 1018 -717
142 -31 448 -33 585 -6 199 41 367 109 509 207 87 60 232 203 280 274 44 67
121 246 146 344 72 273 78 630 15 877 -28 107 -84 265 -95 265 -4 0 -76 -132
-160 -292z"/>
<path d="M3910 2515 c-298 -440 -320 -1145 -50 -1640 138 -252 381 -480 604
-566 182 -70 387 -99 568 -79 274 30 662 138 816 227 195 112 310 263 320 419
4 68 -6 140 -27 197 l-11 27 -54 -35 c-152 -97 -357 -180 -529 -216 -127 -26
-348 -27 -482 -4 -402 71 -678 313 -749 658 -21 99 -21 277 0 368 39 172 141
365 293 554 l88 110 -91 3 c-50 1 -221 6 -380 10 l-289 7 -27 -40z"/>
<path d="M6902 2303 l-89 -228 46 -11 c48 -10 63 -18 286 -144 284 -160 468
-220 676 -220 106 0 109 1 109 23 0 45 -27 134 -58 192 -73 137 -95 190 -100
251 l-4 61 -61 11 c-41 8 -141 51 -316 136 -217 106 -343 156 -389 156 -6 0
-51 -102 -100 -227z"/>
<path d="M6689 1954 c-51 -52 -161 -130 -239 -169 -129 -65 -319 -118 -545
-152 -167 -25 -598 -25 -770 0 -222 33 -478 104 -582 162 -24 13 -43 21 -43
17 0 -4 32 -118 72 -254 l73 -247 80 -30 c157 -59 320 -100 490 -122 118 -15
453 -15 580 0 393 48 776 174 1127 371 154 87 340 212 330 222 -6 6 -74 32
-153 59 -167 58 -269 105 -332 153 l-45 34 -43 -44z"/>
</g>
</svg>
