<?xml version="1.0" standalone="no"?>
<!DOCTYPE svg PUBLIC "-//W3C//DTD SVG 20010904//EN"
 "http://www.w3.org/TR/2001/REC-SVG-20010904/DTD/svg10.dtd">
<svg version="1.0" xmlns="http://www.w3.org/2000/svg"
 width="640.000000pt" height="1280.000000pt" viewBox="0 0 640.000000 1280.000000"
 preserveAspectRatio="xMidYMid meet">
<metadata>
Created by potrace 1.15, written by Peter Selinger 2001-2017
</metadata>
<g transform="translate(0.000000,1280.000000) scale(0.100000,-0.100000)"
fill="#000000" stroke="none">
<path d="M2822 12757 c-11 -24 -34 -54 -51 -66 l-31 -22 0 -100 c0 -98 0 -99
-24 -99 -19 0 -26 7 -31 33 -4 17 -12 38 -17 45 -16 18 -73 15 -99 -7 -22 -17
-24 -27 -23 -100 1 -94 13 -115 68 -115 45 0 65 18 72 65 6 33 10 39 31 39
l24 0 -1 -230 -1 -230 -24 0 c-18 0 -25 7 -30 33 -10 46 -23 57 -65 57 -59 0
-75 -26 -75 -121 1 -92 13 -111 69 -111 47 0 65 15 72 63 5 29 11 39 25 39 17
0 19 -12 21 -142 3 -134 4 -143 23 -146 41 -8 81 -33 99 -63 17 -28 17 -55 12
-377 -13 -757 -24 -1482 -66 -4332 -6 -388 -15 -970 -20 -1295 -6 -324 -10
-653 -10 -730 l0 -141 -32 -54 c-79 -131 -234 -156 -426 -69 -138 62 -258 171
-342 309 -149 247 -231 493 -271 820 -6 52 -16 103 -21 113 -9 17 -11 18 -28
2 -65 -59 -163 -335 -200 -565 -34 -208 3 -437 149 -925 202 -677 253 -955
218 -1185 -23 -151 -63 -258 -199 -534 -197 -396 -239 -502 -308 -776 -140
-559 -125 -1031 43 -1329 155 -275 502 -423 1157 -493 88 -9 282 -13 655 -13
586 0 713 8 996 65 279 56 441 121 637 257 162 112 249 199 296 295 48 98 64
165 81 347 23 235 0 478 -66 716 -78 275 -178 458 -451 825 -247 332 -288 432
-288 717 0 298 48 598 195 1208 88 363 43 600 -159 836 -26 30 -29 32 -41 16
-7 -10 -18 -55 -25 -100 -53 -364 -103 -518 -214 -661 -138 -177 -381 -297
-576 -283 -41 3 -87 10 -101 17 l-26 12 -7 391 c-3 216 -11 667 -16 1002 -20
1250 -30 1877 -40 2510 -6 358 -15 909 -20 1225 -32 1945 -34 2169 -20 2196
17 30 58 54 96 54 l27 0 -6 145 -7 145 30 0 c27 0 30 -3 30 -30 0 -40 31 -70
73 -70 56 0 62 10 65 107 4 99 -5 117 -65 129 -39 8 -73 -23 -73 -66 0 -27 -3
-30 -30 -30 l-30 0 0 83 c0 45 -3 146 -7 225 l-6 142 26 0 c21 0 27 -6 32 -32
10 -48 32 -68 75 -68 48 0 60 15 67 83 9 88 -2 125 -43 145 -32 15 -38 15 -62
1 -19 -10 -29 -25 -32 -49 -4 -29 -10 -36 -32 -38 -28 -3 -28 -3 -28 56 0 90
-11 152 -26 152 -20 0 -83 67 -90 95 l-6 25 -229 0 -228 0 -19 -43z"/>
</g>
</svg>
