<?xml version="1.0" standalone="no"?>
<!DOCTYPE svg PUBLIC "-//W3C//DTD SVG 20010904//EN"
 "http://www.w3.org/TR/2001/REC-SVG-20010904/DTD/svg10.dtd">
<svg version="1.0" xmlns="http://www.w3.org/2000/svg"
 width="1280.000000pt" height="1280.000000pt" viewBox="0 0 1280.000000 1280.000000"
 preserveAspectRatio="xMidYMid meet">
<metadata>
Created by potrace 1.15, written by Peter Selinger 2001-2017
</metadata>
<g transform="translate(0.000000,1280.000000) scale(0.100000,-0.100000)"
fill="#000000" stroke="none">
<path d="M6145 12509 c-614 -51 -1346 -220 -1965 -456 -154 -59 -429 -188
-469 -220 l-23 -19 112 -70 c169 -104 309 -214 454 -355 l131 -127 28 15 c58
30 540 184 727 232 618 159 1296 246 1645 212 395 -39 1088 -222 1500 -397
560 -237 990 -511 1486 -944 162 -143 393 -333 501 -414 l36 -27 209 261 c114
144 209 266 211 271 2 5 -54 66 -125 136 -702 693 -1554 1268 -2343 1580 -495
196 -830 272 -1270 288 -96 4 -220 13 -275 21 -126 18 -426 25 -570 13z"/>
<path d="M11815 12494 c-449 -44 -876 -159 -1360 -366 -242 -103 -545 -268
-545 -297 0 -5 133 -140 296 -299 l297 -290 61 20 c126 41 207 74 405 165 185
85 389 170 450 188 l24 7 -7 -83 c-45 -547 -586 -1672 -1140 -2369 -481 -606
-1116 -1042 -1860 -1276 -125 -40 -387 -107 -489 -125 -65 -12 -67 -14 -78
-48 -6 -20 -15 -178 -20 -351 -8 -297 -19 -433 -40 -487 -9 -23 -7 -24 29 -18
1271 216 2352 835 3108 1781 268 336 529 777 706 1194 91 217 355 930 421
1140 203 647 259 1119 170 1441 -15 55 -16 57 -56 63 -55 8 -321 15 -372 10z"/>
<path d="M474 12411 c-77 -12 -118 -29 -145 -57 -23 -24 -24 -33 -23 -137 2
-184 75 -539 220 -1072 157 -578 372 -1206 467 -1366 l25 -41 272 349 c151
191 277 353 282 359 5 7 -24 101 -76 240 -112 307 -150 428 -175 557 -17 88
-29 247 -18 247 29 0 291 -36 372 -51 654 -122 1275 -434 1910 -960 136 -113
498 -476 627 -629 468 -556 839 -1206 1083 -1895 l43 -120 158 -17 c88 -9 224
-23 304 -32 80 -9 209 -19 288 -23 135 -6 142 -5 142 13 0 29 -44 185 -88 314
-199 583 -708 1392 -1335 2125 -418 487 -1012 1047 -1289 1214 -539 325 -1749
778 -2476 926 -231 47 -472 70 -568 56z"/>
<path d="M8404 10788 c-55 -45 -155 -139 -224 -208 -805 -808 -1395 -2114
-1511 -3345 -14 -138 -19 -629 -7 -640 6 -6 759 22 784 30 7 2 6 30 -3 91 -17
108 -18 413 -4 544 50 434 209 959 445 1467 316 682 799 1336 1241 1681 l29
23 -29 25 c-73 61 -181 131 -348 226 -99 57 -201 122 -227 145 l-47 42 -99
-81z"/>
<path d="M2219 10702 c-697 -715 -1180 -1482 -1453 -2304 -129 -386 -204 -762
-248 -1228 -16 -172 -16 -752 0 -930 72 -800 248 -1521 571 -2342 35 -87 65
-158 69 -157 14 1 98 112 249 329 86 124 180 254 210 290 39 47 52 71 48 85
-23 82 -161 652 -189 785 -133 625 -189 1085 -190 1565 0 500 54 812 211 1210
160 406 410 818 934 1540 368 506 632 886 623 895 -5 4 -124 67 -264 140 -140
73 -301 156 -356 186 l-102 53 -113 -117z"/>
<path d="M11509 8858 c-134 -177 -243 -329 -242 -338 1 -8 29 -94 62 -190 302
-869 362 -1989 160 -3005 -164 -826 -545 -1602 -1062 -2165 -138 -149 -310
-303 -517 -462 l-35 -26 30 -32 c17 -18 89 -71 160 -118 72 -47 168 -110 215
-141 47 -30 120 -84 163 -119 68 -54 81 -61 95 -50 206 159 504 448 677 657
378 456 683 1013 880 1606 324 973 388 2044 189 3135 -66 363 -219 880 -358
1212 -61 147 -162 358 -170 358 -2 0 -113 -145 -247 -322z"/>
<path d="M2243 8721 l-192 -378 70 -89 c175 -219 454 -470 724 -648 758 -501
1653 -857 2530 -1005 203 -34 371 -51 581 -58 l202 -6 6 134 c3 74 8 240 12
370 l6 236 -89 12 c-332 45 -837 179 -1268 335 -583 212 -1107 473 -1590 791
-286 189 -536 397 -702 586 -48 54 -90 99 -93 99 -3 0 -91 -171 -197 -379z"/>
<path d="M6734 6189 c3 -85 9 -274 12 -421 6 -239 8 -268 23 -268 9 0 95 -9
192 -20 1038 -115 1843 -391 2494 -854 319 -226 562 -480 750 -784 l58 -93 24
23 c35 32 103 179 158 338 56 161 102 264 146 325 l32 44 -34 56 c-140 233
-412 517 -690 723 -796 588 -1880 965 -3097 1077 l-73 7 5 -153z"/>
<path d="M5857 6206 l-418 -61 5 -30 c14 -68 18 -397 7 -507 -25 -244 -119
-615 -236 -938 -301 -829 -805 -1623 -1299 -2046 l-60 -51 350 -178 c192 -97
377 -193 412 -211 l63 -34 61 52 c69 60 308 314 414 439 311 368 561 780 759
1249 115 274 221 633 279 950 49 269 62 406 91 990 8 168 17 335 19 373 4 58
3 67 -12 66 -9 -1 -205 -29 -435 -63z"/>
<path d="M5050 6160 c-1064 -244 -2150 -883 -2950 -1735 -593 -631 -1007
-1306 -1254 -2048 -147 -439 -221 -996 -227 -1702 l-1 -159 49 -15 c81 -23
394 -20 588 7 575 80 1246 271 1660 472 105 51 215 117 215 128 0 4 -24 23
-53 43 -58 41 -127 97 -298 240 -249 208 -416 319 -481 319 -56 0 -240 -55
-438 -130 -226 -86 -446 -164 -493 -174 -26 -6 -27 -5 -27 35 0 64 48 261 96
399 25 69 65 198 90 288 164 595 419 1081 820 1562 283 340 667 674 1086 946
426 277 1060 573 1598 749 63 21 118 40 121 44 6 5 40 638 39 729 0 17 -3 32
-7 31 -5 0 -64 -13 -133 -29z"/>
<path d="M6810 5083 c0 -36 254 -681 386 -978 405 -916 898 -1640 1488 -2184
325 -300 637 -519 1006 -705 185 -94 764 -349 940 -414 340 -125 645 -203 980
-248 150 -20 488 -21 630 -2 l95 13 -3 90 c-16 521 -222 1678 -377 2125 -37
106 -111 260 -125 260 -11 0 -65 -60 -287 -325 -110 -133 -208 -247 -217 -254
-9 -7 -16 -26 -16 -42 0 -16 20 -205 45 -420 25 -215 45 -400 45 -411 0 -19
-4 -20 -87 -13 -485 39 -1031 253 -1577 618 -672 449 -1297 1113 -1721 1827
-135 228 -317 627 -381 834 -12 38 -25 61 -39 67 -16 7 -764 169 -780 169 -3
0 -5 -3 -5 -7z"/>
<path d="M2376 2713 l-195 -306 19 -27 c32 -45 326 -325 480 -458 848 -729
1893 -1215 2955 -1372 473 -71 1026 -79 1500 -24 661 78 1272 262 1896 574 79
40 146 74 148 76 9 8 -36 34 -185 108 -290 145 -441 266 -549 444 -1 1 -66
-22 -144 -53 -777 -303 -1755 -406 -2656 -280 -894 126 -1770 478 -2390 960
-219 171 -473 417 -627 610 -24 30 -46 54 -50 55 -3 0 -94 -138 -202 -307z"/>
</g>
</svg>
