<?xml version="1.0" standalone="no"?>
<!DOCTYPE svg PUBLIC "-//W3C//DTD SVG 20010904//EN"
 "http://www.w3.org/TR/2001/REC-SVG-20010904/DTD/svg10.dtd">
<svg version="1.0" xmlns="http://www.w3.org/2000/svg"
 width="1208.000000pt" height="1280.000000pt" viewBox="0 0 1208.000000 1280.000000"
 preserveAspectRatio="xMidYMid meet">
<metadata>
Created by potrace 1.15, written by Peter Selinger 2001-2017
</metadata>
<g transform="translate(0.000000,1280.000000) scale(0.100000,-0.100000)"
fill="#000000" stroke="none">
<path d="M6920 12507 c-181 -51 -402 -274 -608 -616 -79 -130 -206 -389 -261
-533 -80 -207 -90 -262 -106 -578 -15 -271 -21 -352 -24 -285 l-1 30 -20 -32
c-11 -18 -25 -33 -32 -33 -10 0 -10 -2 0 -8 8 -6 -8 -13 -45 -21 -78 -17 -231
-66 -300 -97 -32 -14 -65 -22 -77 -19 -17 5 -18 4 -6 -5 17 -13 -14 -10 -125
10 -226 41 -465 50 -670 26 -106 -13 -113 -12 -190 10 -226 65 -456 97 -705
97 -300 1 -558 -40 -829 -132 -320 -108 -576 -245 -850 -454 -58 -44 -111 -80
-118 -81 -7 -1 -19 -8 -26 -16 -10 -12 -9 -12 8 -1 11 8 7 2 -8 -13 -16 -14
-32 -24 -35 -22 -4 2 -44 -30 -88 -72 -44 -43 -64 -64 -45 -47 l36 30 -40 -43
c-38 -41 -53 -53 -40 -32 35 56 -118 -97 -265 -265 -511 -587 -868 -1396 -994
-2255 -65 -442 -66 -931 -4 -1435 11 -84 14 -94 20 -65 5 23 6 13 4 -30 -2
-36 0 -56 4 -45 5 14 9 3 14 -40 12 -106 55 -336 90 -485 233 -993 743 -1852
1431 -2407 139 -113 374 -262 545 -347 397 -197 753 -283 1195 -288 132 -1
151 -3 86 -7 l-84 -6 59 -13 c32 -7 84 -22 114 -32 30 -10 71 -21 90 -24 19
-3 69 -15 110 -27 75 -21 99 -27 200 -49 30 -7 73 -16 95 -21 246 -55 655
-115 1020 -149 344 -31 454 -35 1000 -35 567 1 690 6 1035 45 138 15 335 43
425 60 129 25 155 31 275 60 25 6 65 15 90 19 25 5 65 15 90 24 50 17 146 45
200 57 22 4 -7 6 -75 4 l-110 -3 97 9 c325 30 630 117 943 270 324 159 584
349 856 626 192 196 290 312 431 514 144 207 337 552 428 767 12 29 26 50 31
47 5 -3 6 1 4 9 -3 7 3 33 15 58 11 24 18 33 15 19 -8 -41 80 150 149 323 168
422 274 882 317 1382 15 177 15 630 0 800 -83 923 -374 1717 -872 2381 -114
151 -200 249 -359 406 -272 269 -519 450 -825 605 -131 67 -374 167 -383 158
-3 -3 1 -5 8 -5 7 0 11 -2 8 -5 -9 -9 -68 17 -61 28 3 6 1 7 -5 3 -7 -4 -60 9
-119 28 -440 142 -903 164 -1359 65 -91 -20 -92 -20 -175 0 -158 37 -334 60
-469 62 -47 1 -77 3 -67 6 13 3 6 12 -30 36 -128 87 -149 329 -52 603 42 118
76 186 239 464 163 278 182 315 215 414 19 56 25 95 25 158 0 57 -3 78 -10 68
-7 -11 -10 2 -10 44 0 46 -7 71 -32 119 -43 80 -139 182 -202 214 -59 30 -142
38 -206 20z m2370 -2352 c14 -8 21 -14 15 -14 -5 0 -21 6 -35 14 -14 8 -20 14
-15 14 6 0 21 -6 35 -14z m80 -35 c8 -5 11 -10 5 -10 -5 0 -17 5 -25 10 -8 5
-10 10 -5 10 6 0 17 -5 25 -10z m-7520 -435 c-24 -25 -46 -45 -49 -45 -3 0 15
20 39 45 24 25 46 45 49 45 3 0 -15 -20 -39 -45z m-220 -218 c0 -2 -10 -12
-22 -23 l-23 -19 19 23 c18 21 26 27 26 19z m-1183 -3564 c-3 -10 -5 -2 -5 17
0 19 2 27 5 18 2 -10 2 -26 0 -35z m10 -200 c-3 -10 -5 -2 -5 17 0 19 2 27 5
18 2 -10 2 -26 0 -35z m10 -85 c-2 -13 -4 -5 -4 17 -1 22 1 32 4 23 2 -10 2
-28 0 -40z m3541 -3705 c-10 -2 -28 -2 -40 0 -13 2 -5 4 17 4 22 1 32 -1 23
-4z m4295 -110 c-18 -2 -48 -2 -65 0 -18 2 -4 4 32 4 36 0 50 -2 33 -4z"/>
<path d="M8638 1823 c7 -3 16 -2 19 1 4 3 -2 6 -13 5 -11 0 -14 -3 -6 -6z"/>
</g>
</svg>
