<?xml version="1.0" standalone="no"?>
<!DOCTYPE svg PUBLIC "-//W3C//DTD SVG 20010904//EN"
 "http://www.w3.org/TR/2001/REC-SVG-20010904/DTD/svg10.dtd">
<svg version="1.0" xmlns="http://www.w3.org/2000/svg"
 width="1280.000000pt" height="1279.000000pt" viewBox="0 0 1280.000000 1279.000000"
 preserveAspectRatio="xMidYMid meet">
<metadata>
Created by potrace 1.15, written by Peter Selinger 2001-2017
</metadata>
<g transform="translate(0.000000,1279.000000) scale(0.100000,-0.100000)"
fill="#000000" stroke="none">
<path d="M7402 12719 c-9 -14 -19 -18 -37 -13 -14 3 -31 2 -38 -3 -6 -5 -36
-9 -64 -9 -36 1 -54 -3 -58 -13 -3 -8 -14 -11 -25 -8 -14 4 -20 0 -20 -11 0
-12 -3 -13 -11 -5 -15 15 -39 5 -32 -13 6 -17 -9 -18 -26 -1 -10 10 -16 8 -29
-8 -9 -11 -24 -19 -34 -17 -9 2 -19 -2 -23 -7 -3 -6 -15 -11 -26 -11 -11 0
-17 -4 -14 -10 5 -9 -15 -15 -37 -11 -5 0 -17 -7 -28 -16 -11 -10 -28 -25 -37
-33 -10 -8 -28 -14 -39 -12 -15 2 -23 -3 -27 -17 -3 -12 -11 -21 -19 -21 -19
0 -88 -36 -82 -43 3 -3 -5 -11 -18 -18 -22 -13 -27 -14 -56 -17 -7 -1 -10 -6
-7 -12 3 -5 2 -10 -4 -10 -6 0 -8 -7 -5 -15 4 -11 0 -15 -16 -15 -13 0 -24 -8
-27 -18 -2 -10 -22 -26 -44 -35 -22 -10 -37 -21 -34 -27 3 -5 -3 -13 -12 -19
-10 -6 -13 -11 -8 -11 6 0 -4 -9 -22 -19 -17 -11 -34 -29 -38 -41 -8 -25 -45
-65 -45 -49 0 18 -30 41 -46 35 -11 -4 -15 -2 -11 7 4 10 -2 13 -19 9 -19 -3
-23 -1 -18 11 4 12 1 14 -15 10 -15 -4 -21 -1 -21 11 0 9 -6 15 -12 13 -7 -1
-12 3 -11 9 1 7 -9 14 -22 17 -14 2 -25 0 -25 -4 0 -14 -15 -10 -37 10 -11 11
-33 21 -49 22 -16 2 -37 10 -46 17 -10 8 -28 15 -42 15 -18 0 -23 4 -18 15 4
11 1 14 -11 9 -10 -4 -17 -1 -17 6 0 8 -4 7 -10 -3 -9 -13 -12 -13 -21 3 -6 9
-14 15 -19 12 -5 -3 -23 3 -41 14 -18 11 -36 18 -41 15 -4 -3 -19 3 -33 12
-14 9 -32 14 -40 10 -8 -3 -20 1 -27 8 -7 7 -20 11 -30 8 -10 -2 -18 1 -18 7
0 6 -3 10 -7 10 -23 -4 -43 2 -38 11 4 6 -12 9 -41 8 -33 -2 -49 2 -58 14 -9
12 -16 14 -23 7 -7 -7 -15 -5 -26 5 -8 8 -24 13 -36 11 -12 -2 -21 1 -21 7 0
5 -7 8 -15 5 -8 -4 -17 -2 -21 4 -4 7 -10 6 -19 -1 -10 -9 -16 -6 -25 9 -9 18
-13 19 -31 8 -13 -8 -22 -9 -27 -2 -4 6 -20 11 -37 11 -54 2 -96 8 -101 16 -8
12 -44 9 -44 -3 0 -8 -4 -8 -15 1 -8 7 -26 9 -43 5 -20 -4 -31 -2 -35 8 -5 14
-56 15 -77 2 -6 -4 -17 -1 -25 5 -11 9 -15 9 -15 1 0 -6 -9 -11 -20 -11 -11 0
-20 5 -20 11 0 6 -7 9 -15 5 -8 -3 -15 0 -15 6 0 7 -4 7 -12 1 -7 -5 -26 -8
-41 -7 -16 2 -40 -2 -54 -7 -18 -7 -30 -6 -37 1 -16 16 -36 12 -36 -7 0 -15
-4 -13 -20 7 l-20 25 0 -25 c-1 -24 -1 -24 -15 -6 -14 19 -15 19 -15 2 0 -15
-3 -16 -15 -6 -11 9 -15 9 -15 1 0 -7 -5 -9 -10 -6 -6 4 -18 1 -26 -6 -11 -9
-18 -8 -33 5 -17 16 -19 16 -25 0 -3 -9 -12 -14 -21 -10 -8 3 -15 0 -15 -6 0
-7 -5 -6 -15 2 -12 10 -15 9 -15 -5 0 -14 -3 -15 -15 -5 -10 9 -15 9 -15 1 0
-6 -12 -11 -26 -11 -14 0 -23 -4 -19 -9 3 -6 -8 -8 -25 -6 -19 3 -29 0 -27 -8
1 -7 -3 -11 -10 -10 -6 2 -27 -4 -46 -12 -19 -8 -44 -11 -55 -8 -13 3 -22 1
-22 -6 0 -6 -7 -11 -16 -11 -8 0 -12 -4 -9 -10 3 -5 -3 -10 -15 -10 -11 0 -23
-6 -26 -14 -3 -9 -12 -12 -21 -9 -12 5 -14 3 -8 -7 6 -10 2 -12 -18 -8 -19 4
-24 1 -20 -9 4 -9 -6 -18 -26 -26 -17 -6 -31 -17 -31 -25 0 -7 -5 -10 -12 -6
-8 5 -9 2 -5 -9 5 -12 1 -17 -13 -17 -10 0 -22 -4 -25 -10 -3 -5 -15 -10 -26
-10 -10 0 -18 -4 -16 -8 1 -5 -33 -43 -75 -85 -43 -42 -78 -79 -78 -83 0 -3
-31 -38 -70 -77 -38 -39 -70 -77 -70 -84 0 -8 -12 -18 -26 -24 -15 -5 -24 -12
-20 -16 3 -4 -2 -16 -13 -27 -22 -24 -58 -83 -67 -108 -4 -10 -13 -18 -21 -18
-9 0 -13 -6 -9 -15 3 -8 1 -15 -4 -15 -6 0 -10 -6 -10 -14 0 -7 -9 -16 -21
-19 -15 -4 -19 -11 -15 -25 4 -13 1 -22 -9 -26 -9 -3 -14 -10 -11 -14 3 -5 -2
-18 -12 -28 -9 -11 -18 -26 -20 -34 -2 -8 -13 -35 -24 -60 -12 -25 -22 -51
-24 -57 -1 -7 -12 -25 -24 -40 -12 -16 -17 -29 -11 -31 7 -2 3 -14 -9 -29 -11
-14 -17 -30 -14 -35 3 -5 -2 -15 -12 -22 -10 -8 -15 -20 -11 -30 4 -10 1 -19
-7 -22 -8 -3 -13 -17 -12 -35 1 -17 -1 -32 -5 -35 -7 -4 -39 -62 -39 -71 0 -2
5 -1 11 3 8 4 7 0 -1 -15 -13 -25 -33 -134 -31 -170 0 -12 -2 -28 -7 -35 -4
-6 -7 -22 -8 -36 0 -14 -3 -30 -6 -35 -3 -6 -4 -37 -3 -70 1 -33 -3 -68 -8
-79 -6 -12 -5 -21 1 -25 7 -4 7 -22 2 -51 -5 -25 -5 -47 -2 -50 4 -3 8 -39 9
-80 1 -41 5 -86 8 -100 4 -14 6 -38 6 -53 -1 -19 2 -26 10 -22 8 5 7 0 -1 -15
-10 -18 -9 -21 1 -15 12 8 12 6 -8 -42 -3 -7 1 -13 9 -13 10 0 12 -12 9 -47
-2 -35 1 -50 14 -59 9 -7 15 -16 12 -21 -9 -14 13 -101 29 -114 8 -7 14 -29
14 -55 0 -24 6 -49 13 -56 8 -7 12 -20 10 -28 -3 -9 2 -22 10 -29 8 -6 13 -21
10 -31 -3 -12 0 -20 7 -20 9 0 11 -10 6 -30 -3 -20 -2 -29 4 -25 12 8 60 -92
54 -110 -3 -7 -1 -16 5 -20 6 -3 11 -15 11 -26 0 -12 7 -19 19 -19 14 0 18 -5
14 -20 -3 -12 0 -20 7 -20 7 0 9 -8 5 -21 -6 -18 -4 -20 14 -14 15 4 21 2 21
-9 0 -8 -5 -18 -10 -21 -16 -10 -12 -25 5 -19 10 4 15 0 15 -15 0 -12 4 -21 9
-21 5 0 12 -13 16 -29 5 -22 11 -28 22 -24 12 5 14 1 8 -15 -3 -12 -2 -22 3
-22 5 0 15 -20 22 -45 7 -25 16 -45 20 -45 4 0 10 -9 13 -20 3 -12 11 -18 19
-15 10 4 14 -1 14 -17 -1 -15 4 -22 13 -20 8 2 11 -3 8 -12 -6 -14 48 -96 63
-96 5 0 10 -12 12 -27 2 -16 8 -27 16 -26 6 2 12 -6 12 -18 0 -11 4 -17 10
-14 5 3 16 -11 25 -30 8 -20 24 -39 35 -42 15 -4 19 -12 16 -34 -2 -16 1 -29
6 -29 5 0 8 -5 6 -12 -5 -14 -58 -18 -58 -3 0 9 -14 12 -87 18 -13 1 -23 4
-23 7 0 3 -12 7 -27 8 -15 1 -29 5 -32 10 -3 4 -24 7 -46 7 -22 0 -46 4 -53 9
-9 6 -17 3 -27 -10 -13 -17 -14 -18 -15 -1 0 10 -8 17 -19 17 -27 0 -52 11
-46 19 2 4 -15 7 -38 6 -50 -1 -109 13 -119 29 -6 8 -8 8 -8 -1 0 -13 -91 -13
-101 0 -3 4 -16 9 -27 10 -12 1 -22 4 -22 7 0 4 -6 7 -12 7 -7 0 -20 2 -28 4
-8 2 -14 -2 -13 -8 2 -7 -2 -13 -7 -13 -6 0 -10 8 -10 18 0 10 -3 13 -8 6 -12
-18 -40 -24 -46 -9 -3 9 -18 13 -45 10 -22 -2 -43 1 -47 6 -3 5 -14 7 -25 4
-14 -5 -19 -2 -19 11 0 12 -3 14 -13 5 -8 -6 -22 -12 -33 -14 -10 -1 -24 -6
-31 -10 -7 -4 -14 1 -18 14 -7 20 -8 20 -17 6 -11 -21 -32 -22 -48 -2 -11 14
-15 14 -32 -2 -14 -12 -21 -14 -26 -6 -11 17 -60 34 -64 22 -4 -13 -46 -20
-53 -9 -7 11 -65 10 -65 -2 0 -5 -6 -6 -12 -2 -20 12 -92 13 -99 1 -4 -6 -15
-7 -25 -2 -11 5 -22 7 -26 7 -5 -1 -8 3 -8 8 0 6 -10 2 -22 -9 -14 -14 -25
-18 -33 -11 -7 5 -14 7 -17 5 -3 -3 -17 -1 -30 4 -17 6 -29 6 -36 -1 -7 -7
-17 -6 -31 1 -17 10 -21 9 -21 -3 0 -12 -11 -15 -49 -12 -29 1 -56 -3 -67 -11
-13 -10 -21 -10 -31 -1 -11 9 -16 9 -22 0 -8 -14 -48 -18 -72 -8 -9 4 -21 0
-29 -9 -11 -14 -14 -13 -26 2 -8 11 -13 13 -14 6 0 -7 -7 -13 -15 -13 -8 0
-14 -3 -14 -7 3 -20 -2 -26 -11 -13 -8 11 -12 12 -18 3 -4 -7 -18 -11 -30 -8
-12 2 -22 0 -22 -5 0 -6 -10 -10 -22 -10 -37 1 -65 -6 -80 -17 -7 -6 -23 -9
-35 -8 -14 1 -23 -4 -23 -12 0 -12 -30 -18 -72 -15 -11 1 -20 -8 -24 -23 -5
-21 -9 -23 -31 -14 -20 7 -30 6 -43 -6 -9 -8 -24 -15 -33 -15 -9 0 -19 -4 -22
-10 -3 -5 -15 -10 -25 -10 -13 0 -17 -5 -14 -15 5 -11 2 -13 -10 -9 -10 4 -18
0 -22 -11 -4 -9 -13 -14 -21 -11 -8 3 -24 -3 -36 -14 -11 -11 -38 -25 -59 -31
-21 -5 -36 -14 -33 -18 8 -14 -21 -32 -39 -25 -9 3 -16 1 -16 -5 0 -7 -13 -17
-30 -22 -16 -6 -27 -15 -24 -20 3 -5 -6 -14 -20 -21 -14 -6 -26 -17 -26 -25 0
-7 -10 -13 -22 -13 -12 0 -18 -3 -15 -7 4 -4 -7 -13 -24 -20 -17 -7 -28 -17
-25 -22 4 -5 -8 -20 -26 -32 -18 -13 -36 -29 -41 -35 -14 -23 -88 -94 -97 -94
-6 0 -10 -9 -10 -20 0 -11 -4 -20 -8 -20 -19 0 -74 -60 -69 -74 3 -9 -4 -25
-18 -38 -14 -13 -25 -28 -25 -35 0 -6 -4 -13 -9 -15 -5 -1 -11 -12 -13 -23 -1
-11 -11 -29 -20 -39 -10 -10 -15 -22 -13 -27 3 -4 -5 -16 -18 -26 -13 -10 -22
-23 -20 -29 2 -6 -8 -28 -22 -49 -15 -20 -24 -44 -21 -52 4 -8 -7 -31 -24 -51
-16 -19 -27 -39 -24 -43 8 -13 -20 -99 -32 -99 -7 0 -10 -8 -7 -19 3 -10 -1
-29 -7 -41 -7 -13 -14 -37 -15 -54 -2 -17 -9 -53 -15 -81 -7 -27 -12 -58 -12
-67 1 -10 -3 -18 -8 -18 -4 0 -8 -21 -7 -47 0 -27 -3 -61 -6 -78 -31 -139 -21
-662 13 -673 8 -3 8 -8 -1 -18 -6 -8 -8 -21 -4 -31 10 -22 14 -39 20 -78 2
-16 9 -31 15 -33 8 -3 7 -8 -1 -18 -9 -11 -9 -14 1 -14 7 0 10 -7 6 -15 -3 -8
-2 -15 3 -15 4 0 7 -23 7 -50 -1 -41 2 -50 17 -50 14 0 16 -5 11 -25 -4 -15
-2 -25 5 -25 6 0 8 -7 4 -17 -5 -12 -3 -14 7 -8 9 6 11 4 6 -4 -8 -12 33 -101
46 -101 3 0 4 -9 1 -20 -3 -11 -1 -20 5 -20 5 0 12 -13 16 -30 3 -18 12 -30
21 -30 9 0 15 -6 13 -12 -4 -23 13 -59 24 -52 7 5 9 0 6 -14 -5 -16 2 -29 23
-46 16 -14 29 -34 29 -46 0 -11 7 -23 15 -26 8 -4 15 -12 15 -19 0 -7 7 -15
15 -19 8 -3 15 -14 15 -24 0 -24 19 -42 38 -34 11 4 14 1 9 -11 -7 -19 78
-114 99 -109 8 2 12 -3 8 -11 -3 -8 2 -17 10 -20 9 -4 16 -14 16 -24 1 -17 1
-17 14 0 17 22 26 22 23 0 -1 -10 3 -20 8 -22 6 -2 16 -12 23 -23 7 -10 18
-16 23 -13 5 4 9 -1 9 -9 0 -9 3 -15 8 -15 24 4 42 -3 42 -16 0 -8 5 -15 11
-15 6 0 25 -11 43 -25 18 -14 37 -25 42 -25 6 0 16 -6 22 -12 7 -7 16 -13 20
-13 12 -1 106 -49 119 -61 7 -7 10 -14 7 -16 -5 -6 -15 -70 -28 -180 -1 -10
-10 -26 -20 -37 -13 -14 -14 -20 -4 -23 10 -4 11 -10 1 -29 -7 -13 -12 -35
-12 -49 0 -31 -7 -76 -15 -89 -3 -5 -1 -11 5 -13 9 -3 8 -11 -1 -28 -28 -52
-29 -59 -18 -62 9 -3 8 -13 -2 -37 -12 -30 -20 -117 -19 -213 1 -54 -7 -134
-14 -145 -5 -8 -3 -13 6 -13 10 0 13 -21 13 -95 -1 -52 1 -95 4 -95 3 0 6 -12
6 -27 5 -101 10 -143 16 -143 7 0 18 -46 23 -94 4 -36 5 -37 14 -32 4 3 7 -12
6 -35 -1 -27 3 -42 13 -48 9 -5 15 -22 14 -41 0 -24 3 -30 14 -26 11 4 12 2 4
-13 -8 -16 -6 -20 7 -23 11 -2 18 -13 18 -28 0 -14 5 -24 11 -23 8 1 10 -6 6
-19 -3 -14 -1 -19 6 -14 8 5 12 -3 12 -23 0 -21 4 -29 13 -25 10 3 13 -3 9
-24 -2 -16 1 -33 7 -36 6 -4 11 -16 11 -27 0 -11 4 -18 9 -15 9 6 63 -58 74
-86 3 -10 13 -18 21 -18 7 0 17 -11 20 -25 4 -14 13 -25 21 -25 8 0 15 -7 15
-16 0 -8 4 -13 9 -9 5 3 12 -4 16 -15 3 -11 13 -20 21 -20 8 0 13 -4 10 -9 -9
-15 4 -40 19 -35 7 3 15 -2 19 -11 3 -10 12 -15 21 -11 10 3 17 -3 21 -19 3
-14 10 -23 14 -20 4 3 13 -2 20 -10 7 -8 17 -15 22 -15 6 0 19 -11 29 -25 11
-13 26 -22 33 -19 7 3 16 -2 20 -11 3 -9 14 -15 23 -13 12 2 19 -4 21 -20 3
-19 20 -28 37 -19 2 1 10 -7 18 -17 8 -10 19 -16 25 -12 6 3 15 -2 21 -11 6
-10 11 -14 11 -10 0 5 7 1 16 -8 10 -9 25 -14 35 -12 12 3 20 -2 24 -13 4 -12
12 -16 27 -12 14 3 26 -1 35 -14 11 -16 17 -17 33 -6 17 11 20 10 20 -7 0 -24
8 -30 49 -33 17 -1 31 -6 31 -10 0 -4 6 -8 14 -8 8 0 17 -6 20 -12 5 -10 7
-10 12 -1 7 15 34 5 34 -13 0 -14 25 -15 48 -1 6 5 12 4 12 -1 0 -12 24 -22
65 -29 16 -3 42 -11 57 -19 24 -12 28 -12 37 4 9 15 10 15 11 -4 0 -18 5 -21
35 -18 19 1 35 -1 35 -5 0 -4 11 -13 24 -19 20 -9 25 -7 34 11 9 18 11 19 11
5 1 -11 9 -18 21 -18 11 0 20 -6 20 -12 0 -7 9 -2 20 12 19 24 20 24 20 4 0
-16 6 -21 26 -21 15 0 30 -7 35 -14 8 -12 11 -12 19 1 7 12 10 12 10 1 0 -7 6
-11 15 -7 8 3 15 0 15 -6 0 -7 7 -3 15 8 9 12 14 14 15 6 0 -9 7 -11 20 -7 14
4 20 2 20 -8 0 -10 11 -13 38 -12 20 1 40 -3 45 -9 5 -7 12 -5 22 8 14 18 15
18 15 2 0 -9 5 -14 10 -11 6 3 10 2 10 -4 0 -6 11 -6 32 0 41 11 38 11 38 -3
0 -8 16 -13 43 -14 23 -1 51 -2 62 -3 11 -1 28 -1 38 -1 49 0 77 -5 77 -13 0
-5 6 -4 14 2 11 9 15 9 18 0 3 -8 9 -6 21 5 13 13 17 14 17 4 0 -23 38 -19 46
5 7 21 8 21 17 -6 l9 -28 15 21 c12 17 17 19 24 9 6 -11 9 -10 15 4 6 17 7 17
20 0 7 -10 14 -13 14 -8 0 12 40 15 40 4 0 -15 40 4 41 20 0 10 2 11 6 4 6
-16 30 -17 35 -1 3 7 9 8 19 2 22 -14 59 -12 59 4 0 12 3 12 15 2 10 -8 15 -9
15 -2 0 6 7 9 15 6 9 -4 15 0 15 10 0 20 7 20 27 0 14 -14 17 -13 32 9 14 21
18 23 29 10 12 -12 16 -12 31 1 13 12 20 13 29 4 9 -9 12 -6 12 13 0 19 2 21
10 9 8 -12 10 -12 10 5 0 16 2 17 10 5 8 -12 11 -12 28 3 14 13 21 14 30 5 9
-9 13 -7 18 5 4 12 13 15 30 11 20 -5 24 -2 24 16 0 21 1 22 25 6 23 -15 25
-15 25 -1 0 9 5 13 10 10 6 -3 10 -1 10 4 0 6 6 11 14 11 8 0 17 6 19 13 4 9
6 9 6 0 1 -20 21 -15 21 5 0 14 2 15 10 2 8 -12 10 -12 15 2 4 9 14 14 24 11
11 -3 21 2 25 12 3 9 10 13 16 10 5 -3 10 0 10 7 0 9 3 9 10 -2 8 -12 10 -10
10 9 0 16 4 21 15 17 8 -3 21 2 30 10 9 9 22 13 30 10 8 -3 15 -1 15 4 0 6 6
10 14 10 8 0 17 7 20 16 4 9 9 14 13 11 3 -4 12 -2 20 4 9 9 13 8 13 0 0 -19
18 -12 25 10 6 17 9 19 16 8 7 -11 9 -10 9 4 0 9 7 17 15 17 8 0 15 7 15 16 0
8 5 12 10 9 6 -3 17 1 25 9 9 8 22 13 29 10 9 -3 19 7 27 25 10 22 19 29 31
25 10 -3 18 -1 18 4 0 5 8 9 17 8 12 0 19 7 21 21 4 25 17 30 25 11 3 -7 6 -2
6 12 1 17 4 21 10 12 6 -10 13 -11 34 -1 15 7 27 16 27 21 0 5 5 6 10 3 6 -3
10 1 10 9 0 14 13 21 23 14 8 -6 37 32 37 49 1 17 1 17 14 0 12 -15 14 -16 20
-2 3 8 11 15 18 15 7 0 22 11 32 25 10 13 22 22 27 19 5 -3 9 3 9 12 0 10 3
15 6 11 5 -5 16 3 67 51 10 9 25 16 33 14 9 -2 14 5 14 19 0 14 5 19 14 16 16
-7 49 30 40 45 -4 6 -3 8 4 4 6 -3 17 0 24 7 7 8 20 12 29 10 11 -3 19 3 24
16 4 12 12 18 21 14 9 -3 14 1 14 14 0 10 9 25 19 32 11 8 17 21 14 30 -4 11
0 9 10 -4 16 -20 16 -19 17 9 0 24 2 27 15 16 13 -10 15 -9 15 9 0 15 6 21 21
21 15 0 19 5 14 19 -4 14 -1 19 12 17 10 0 22 9 28 22 5 12 16 20 22 17 7 -2
13 0 13 6 0 6 3 8 8 5 12 -7 37 17 53 51 14 34 29 43 29 20 0 -12 23 -39 117
-139 7 -7 22 -22 33 -32 11 -11 20 -29 20 -42 0 -21 24 -39 39 -30 4 3 5 -9 3
-26 -4 -25 -2 -30 11 -25 11 4 17 -3 22 -29 3 -19 13 -38 21 -41 7 -3 14 -14
14 -24 0 -10 5 -19 11 -19 5 0 7 -4 4 -10 -3 -5 0 -22 8 -37 35 -69 47 -101
53 -141 4 -24 13 -49 20 -56 7 -8 13 -22 13 -32 0 -24 6 -53 26 -139 9 -38 17
-89 16 -112 0 -24 3 -43 7 -43 4 0 8 -39 9 -88 3 -150 5 -177 15 -189 5 -7 7
-17 4 -22 -4 -5 -2 -12 4 -16 7 -4 7 -12 0 -26 -7 -12 -7 -25 -1 -37 6 -11 6
-24 -1 -36 -6 -10 -7 -33 -2 -54 4 -20 7 -40 6 -45 -1 -4 -4 -42 -6 -86 -1
-43 -6 -82 -9 -88 -3 -5 -2 -15 3 -23 5 -8 5 -21 0 -30 -5 -9 -5 -22 -1 -29 5
-7 2 -33 -5 -57 -8 -28 -9 -44 -3 -44 6 0 7 -5 3 -11 -13 -21 -22 -79 -13 -79
6 0 5 -9 -1 -20 -8 -14 -8 -20 0 -20 7 0 7 -7 -2 -22 -6 -13 -14 -43 -16 -68
-2 -25 -10 -52 -18 -61 -12 -14 -13 -18 -2 -23 10 -5 10 -7 1 -12 -16 -7 -17
-34 -2 -34 6 0 1 -13 -10 -29 -11 -15 -18 -31 -14 -34 3 -4 1 -12 -4 -19 -6
-7 -14 -35 -17 -61 -4 -27 -18 -64 -32 -84 -13 -20 -24 -46 -24 -59 0 -12 -5
-26 -10 -29 -6 -4 -8 -10 -5 -15 3 -4 -2 -13 -9 -20 -8 -6 -18 -26 -22 -43 -3
-17 -14 -37 -23 -44 -12 -9 -13 -15 -4 -23 8 -9 5 -21 -13 -47 -13 -20 -24
-43 -24 -52 0 -9 -9 -24 -20 -34 -11 -9 -17 -23 -14 -32 4 -8 1 -15 -5 -15 -6
0 -11 -9 -11 -20 0 -12 -7 -31 -15 -44 -9 -13 -18 -34 -20 -46 -3 -13 -17 -36
-32 -52 -21 -22 -24 -31 -15 -37 10 -6 8 -16 -8 -44 -12 -21 -19 -37 -15 -37
4 0 2 -7 -5 -15 -7 -9 -10 -18 -7 -21 3 -3 -1 -25 -9 -47 -13 -37 -18 -61 -25
-127 -5 -39 1 -59 16 -54 10 4 15 0 15 -14 0 -15 5 -19 20 -15 16 4 19 2 14
-12 -6 -15 -4 -16 14 -6 18 10 22 9 22 -5 0 -10 5 -14 15 -10 10 3 15 -1 15
-13 0 -10 6 -18 13 -19 63 -7 80 -11 87 -22 6 -10 9 -9 13 1 4 10 8 7 13 -9 5
-18 9 -20 21 -10 11 9 16 9 22 -1 5 -7 25 -13 45 -13 20 0 36 -3 36 -7 0 -4
16 -8 35 -8 19 0 43 -7 54 -17 17 -16 19 -16 26 1 6 16 8 15 17 -7 10 -24 10
-24 18 -5 7 16 9 17 9 3 1 -13 9 -16 36 -14 20 2 38 6 42 10 9 9 33 -14 34
-33 0 -9 3 -11 5 -4 4 9 13 9 31 2 18 -7 30 -6 40 3 10 8 17 8 21 1 9 -14 61
-23 68 -11 3 5 12 4 20 -3 7 -6 20 -9 28 -6 8 3 17 -1 20 -10 5 -11 10 -12 19
-4 16 13 77 10 78 -4 0 -5 7 4 14 20 l14 30 1 -26 c0 -26 20 -33 49 -15 8 5
16 4 20 -3 4 -6 15 -9 24 -5 10 3 24 1 31 -5 11 -10 17 -8 25 6 6 11 11 13 11
5 0 -9 7 -11 19 -7 11 3 23 1 27 -6 4 -8 11 -2 20 17 11 26 12 27 13 7 1 -23
21 -34 21 -12 0 8 5 8 15 -1 13 -10 15 -9 16 11 1 17 3 19 6 7 5 -21 23 -24
23 -5 0 8 4 7 10 -3 9 -13 12 -13 20 2 8 14 15 14 40 5 25 -10 33 -9 40 3 8
12 10 12 16 -3 8 -22 21 -22 27 1 4 16 5 16 6 -1 1 -16 3 -16 31 -2 17 9 35
13 41 9 6 -4 15 0 20 7 8 12 10 12 18 0 7 -11 10 -9 16 8 4 13 11 18 18 14 17
-11 47 -11 47 -1 0 5 9 6 20 3 16 -5 20 -2 20 16 0 20 2 21 18 7 19 -17 42
-13 42 7 0 19 22 24 37 9 17 -17 51 -6 59 18 4 13 9 16 18 9 7 -6 17 -6 26 -1
8 5 18 6 22 4 4 -3 8 0 8 5 0 6 11 11 24 11 14 0 28 5 31 10 3 6 15 10 26 10
10 0 19 5 19 10 0 6 7 10 15 10 8 0 15 5 15 10 0 6 9 10 20 10 11 0 28 8 38
18 9 9 24 17 32 17 8 0 14 6 12 13 -1 6 7 12 18 12 25 0 70 48 63 69 -4 11 0
9 10 -4 14 -18 16 -18 22 -3 4 9 3 23 -1 30 -6 10 -5 11 8 1 12 -11 20 -9 41
10 15 12 27 26 27 30 0 13 34 46 42 41 4 -3 8 4 8 15 0 12 5 21 12 21 6 0 9 3
5 6 -3 4 1 13 9 22 9 8 13 23 11 33 -3 10 1 20 9 23 7 3 11 12 8 21 -3 8 -1
15 5 15 11 0 10 148 -2 180 -3 8 -10 38 -17 65 -7 28 -14 57 -18 65 -3 8 -4
22 -3 32 1 9 -3 19 -9 23 -5 3 -10 14 -10 23 0 10 -9 34 -20 55 -11 20 -18 37
-15 37 5 0 -19 69 -38 109 -7 13 -11 32 -9 43 2 11 -3 18 -13 18 -9 0 -13 5
-10 11 4 5 0 18 -8 27 -9 9 -16 22 -17 27 -2 6 -6 21 -11 35 -17 45 -18 50
-18 56 0 4 -3 10 -8 13 -14 10 -54 69 -52 78 4 16 -23 73 -34 73 -8 0 -7 4 2
9 10 7 8 12 -10 24 -12 9 -20 20 -16 23 4 4 2 13 -4 21 -6 7 -8 13 -4 13 4 0
-4 16 -19 35 -14 19 -26 38 -25 42 5 19 -16 69 -33 82 -11 7 -17 19 -14 27 3
7 -4 20 -15 27 -11 8 -17 21 -14 29 4 9 -4 22 -21 32 -19 13 -23 21 -15 29 8
8 5 17 -11 34 -12 13 -16 23 -9 23 7 0 3 9 -9 22 -11 12 -18 28 -16 35 3 7 -1
13 -9 13 -8 0 -15 8 -15 19 0 10 -7 24 -15 31 -8 7 -13 16 -10 20 2 4 -4 15
-15 25 -11 10 -17 22 -14 26 3 5 -2 16 -11 25 -9 9 -14 21 -12 28 2 6 -2 17
-10 24 -7 7 -13 24 -13 38 0 13 -6 24 -12 24 -10 0 -10 2 0 9 10 6 10 10 -3
21 -8 7 -15 18 -15 25 0 7 -7 16 -16 19 -8 3 -12 10 -9 16 3 5 1 10 -5 10 -6
0 -8 5 -5 11 4 5 -1 19 -10 29 -10 11 -15 26 -12 34 3 8 -3 22 -14 32 -10 9
-19 23 -19 31 0 8 -5 24 -12 36 -6 12 -12 30 -13 41 -1 10 -9 23 -18 28 -10 5
-17 16 -17 24 0 8 -7 17 -15 20 -8 4 -15 10 -15 16 0 5 5 6 10 3 14 -9 12 12
-5 44 -8 16 -12 31 -9 34 3 3 2 12 -2 19 -9 13 -13 27 -19 65 -5 35 -16 63
-24 63 -4 0 -7 21 -6 48 1 26 -5 58 -14 72 -8 14 -14 43 -12 68 1 24 -3 49 -9
57 -8 10 -8 19 -1 34 6 11 7 22 2 25 -5 3 -11 15 -14 26 -3 11 -1 18 4 15 5
-3 6 12 3 35 -3 23 -2 40 4 40 10 0 8 62 -3 80 -3 5 0 13 8 16 10 3 13 17 10
44 -2 22 0 40 5 40 5 0 9 15 10 33 1 36 47 147 60 147 5 0 9 14 9 31 0 19 6
35 16 41 10 5 17 21 18 36 0 15 3 21 6 13 14 -35 50 -77 62 -73 9 3 11 0 7 -7
-7 -11 71 -93 123 -131 12 -8 21 -20 21 -28 0 -7 5 -10 10 -7 6 3 14 -5 20
-19 9 -26 43 -50 54 -39 3 3 6 -1 6 -10 0 -10 5 -14 15 -11 9 4 15 0 15 -8 0
-20 37 -48 55 -42 10 4 15 0 15 -10 0 -9 8 -20 18 -23 9 -4 21 -12 25 -20 4
-7 14 -13 21 -13 8 0 16 -7 20 -15 3 -8 9 -15 13 -14 23 4 31 -3 26 -23 -5
-18 -3 -21 7 -11 10 9 17 7 32 -12 10 -13 29 -27 41 -31 12 -4 24 -10 27 -14
13 -18 95 -70 112 -70 10 0 18 -6 18 -13 0 -7 12 -18 28 -25 50 -23 82 -43 82
-52 0 -5 9 -12 20 -15 11 -3 20 -13 20 -22 0 -13 3 -13 15 -3 12 10 15 9 15
-5 0 -13 6 -16 25 -11 18 5 25 2 25 -9 0 -14 4 -17 33 -19 6 -1 24 -14 40 -31
15 -16 27 -26 27 -21 0 5 7 3 15 -4 8 -7 15 -9 15 -5 0 5 8 1 18 -8 10 -10 22
-14 25 -10 4 3 7 -1 7 -11 0 -9 4 -15 8 -12 5 3 15 -4 22 -15 8 -10 20 -19 27
-19 7 0 13 -5 13 -11 0 -5 5 -7 11 -4 6 4 13 -2 16 -14 3 -12 10 -18 17 -14
21 14 41 8 66 -19 13 -16 32 -28 42 -28 9 0 20 -5 23 -10 4 -6 10 -8 15 -5 5
3 11 1 15 -5 4 -6 10 -8 15 -5 5 3 12 -4 15 -16 5 -16 13 -20 31 -16 13 2 24
1 24 -3 0 -3 15 -14 34 -22 26 -13 36 -14 46 -5 10 9 11 7 6 -10 -6 -19 -4
-21 24 -18 21 3 30 0 30 -11 0 -10 9 -13 36 -10 24 3 37 0 41 -10 3 -7 9 -11
14 -8 5 3 9 -1 9 -9 0 -9 9 -13 25 -12 14 2 28 -1 31 -7 4 -6 9 -6 14 2 6 10
14 7 30 -8 18 -16 27 -19 41 -11 15 8 19 6 19 -7 0 -13 3 -14 15 -4 9 7 15 8
15 2 0 -9 39 -24 70 -26 8 -1 20 6 27 14 11 13 12 11 13 -9 0 -20 2 -21 15
-11 10 9 15 9 15 1 0 -6 9 -11 19 -11 11 0 21 -6 24 -12 3 -8 8 -4 14 10 l9
23 18 -20 c14 -15 26 -19 43 -14 16 3 28 1 34 -8 8 -12 11 -12 19 1 8 13 11
12 23 -4 10 -13 16 -16 21 -7 4 6 12 9 17 6 5 -4 9 2 10 12 0 14 3 12 10 -6 9
-23 10 -24 24 -5 13 17 14 17 15 2 0 -22 20 -24 20 -2 0 10 4 12 13 7 6 -4 26
-13 43 -19 24 -8 33 -7 44 4 12 13 15 13 21 -4 6 -17 7 -18 14 -2 6 14 9 15
19 5 16 -16 106 -13 116 3 6 9 9 9 13 -1 4 -12 7 -11 16 1 9 13 11 13 11 -2 0
-22 14 -23 33 -4 11 11 17 12 26 3 8 -8 11 -6 11 7 0 15 3 16 15 6 13 -10 19
-10 35 5 19 17 20 17 20 -1 0 -22 33 -27 60 -9 8 5 26 10 40 10 14 0 30 4 37
8 6 4 14 1 16 -5 3 -7 6 -3 6 10 1 26 16 29 25 5 6 -15 8 -14 20 2 13 18 14
18 24 -1 11 -18 11 -18 12 -1 0 10 5 15 10 12 6 -3 11 4 11 17 1 15 3 17 6 7
5 -21 53 -20 53 1 0 10 6 8 18 -8 16 -20 20 -21 30 -9 7 8 25 13 42 11 20 -3
30 1 30 10 0 8 7 16 15 20 8 3 15 0 15 -6 0 -7 6 -6 16 3 12 10 17 10 23 0 6
-10 10 -9 15 4 4 12 14 16 32 12 20 -4 28 0 32 15 3 12 7 16 12 9 12 -20 40 0
41 28 l1 26 8 -25 c4 -14 9 -18 9 -10 1 13 2 13 11 0 8 -12 10 -12 10 -1 0 8
7 11 20 8 11 -3 20 -1 20 5 0 5 4 7 9 4 5 -3 14 1 21 9 6 7 18 11 26 8 8 -3
14 0 14 6 0 6 9 11 19 11 11 0 26 7 35 15 8 9 19 15 23 14 22 -4 41 3 62 22
12 12 33 22 47 23 13 0 24 5 24 10 0 5 3 7 6 3 4 -3 15 4 25 16 10 12 18 18
19 14 0 -4 9 -3 21 3 12 7 18 18 15 26 -4 11 -2 12 13 4 14 -7 22 -6 31 5 7 8
16 12 21 9 5 -3 9 2 9 10 0 10 9 16 24 16 16 0 26 7 29 21 3 12 10 18 17 14 6
-4 20 5 31 20 16 19 24 23 34 15 10 -8 15 -6 20 9 3 12 13 21 21 21 8 0 14 9
14 21 0 11 4 17 10 14 14 -8 40 13 40 32 0 17 46 64 54 55 4 -3 9 4 13 16 3
12 10 22 15 22 6 0 8 7 4 15 -3 8 -1 15 4 15 6 0 10 7 10 15 0 8 6 14 13 13 6
-2 13 9 15 24 2 14 10 32 18 38 8 7 14 21 14 31 0 11 7 19 15 19 9 0 15 6 14
12 -3 20 12 68 22 68 5 0 9 9 9 19 0 11 12 42 26 68 16 31 24 59 22 80 -2 20
1 34 9 37 7 3 11 17 8 36 -3 23 0 30 9 27 10 -4 12 5 8 39 -3 30 -1 44 7 44 7
0 10 4 6 10 -3 5 -1 37 6 72 9 51 18 182 20 281 0 9 5 17 11 17 6 0 3 9 -6 19
-11 12 -15 25 -10 33 12 19 14 97 3 124 -4 13 -5 24 -1 24 11 0 9 81 -1 98 -5
6 -5 16 -2 22 3 5 1 18 -4 29 -6 11 -7 21 -2 23 7 3 5 28 -13 158 -1 9 -5 21
-10 28 -4 7 -2 12 5 12 8 0 8 4 -2 16 -10 13 -10 17 2 25 12 7 12 9 -1 9 -11
0 -15 13 -17 50 -1 27 -7 58 -12 69 -7 13 -8 28 -2 44 7 18 5 28 -7 41 -18 18
-22 47 -8 58 5 3 2 13 -6 22 -9 8 -19 37 -23 63 -4 26 -12 54 -17 61 -6 7 -8
15 -4 19 3 3 -2 15 -11 26 -17 19 -17 20 4 15 13 -4 26 -2 29 3 3 5 10 7 15 4
5 -4 9 6 9 20 0 24 1 25 16 11 17 -18 34 -13 34 10 0 17 17 19 23 2 2 -7 9 3
15 22 6 19 11 29 11 23 1 -19 24 -16 49 7 12 12 22 18 22 14 0 -3 6 -1 14 6 8
6 12 19 9 28 -6 15 -5 15 10 3 12 -9 17 -10 17 -2 0 7 5 9 10 6 6 -3 10 1 10
10 0 11 5 15 15 11 11 -4 15 1 15 19 0 17 4 23 14 19 7 -3 29 9 47 25 18 17
37 31 42 31 5 0 7 7 4 14 -4 9 2 17 14 21 10 4 19 15 19 25 0 13 5 17 14 14 8
-3 20 2 27 11 8 9 29 33 46 53 18 20 36 44 39 54 3 10 10 16 15 13 5 -4 9 3 9
14 0 11 9 25 20 31 11 6 20 17 20 25 0 8 5 15 10 15 6 0 10 9 10 20 0 11 5 20
11 20 5 0 8 4 4 9 -6 10 40 61 55 61 4 0 11 23 15 50 4 32 12 50 20 50 8 0 17
15 21 35 3 19 10 32 15 29 5 -3 9 6 9 20 0 14 4 26 9 26 5 0 12 10 16 23 4 12
8 24 9 27 2 3 9 19 16 35 7 17 15 41 16 55 4 34 25 71 37 63 5 -3 4 5 -3 17
-11 20 -10 22 6 18 16 -4 19 1 20 26 2 90 4 98 19 92 11 -4 15 2 15 24 0 39
19 118 36 152 8 14 14 40 14 57 0 17 3 31 8 31 4 0 7 32 6 71 -1 45 3 72 10
75 8 3 10 24 6 63 -3 33 -2 57 2 55 4 -3 8 4 8 15 0 11 -5 23 -10 26 -7 4 -6
13 1 26 8 16 7 30 -6 61 -13 34 -13 40 -2 35 14 -5 8 29 -21 113 -3 8 -6 34
-8 58 -2 23 -10 52 -18 63 -8 12 -12 27 -9 35 3 7 -5 26 -16 40 -13 16 -19 35
-16 46 4 12 1 18 -8 18 -9 0 -13 9 -11 25 1 17 -4 29 -18 36 -11 6 -17 16 -15
24 3 7 -1 22 -9 34 -8 11 -12 21 -8 21 4 0 -5 9 -19 20 -15 12 -24 27 -21 35
3 8 -6 25 -19 38 -14 12 -29 35 -32 50 -4 15 -11 27 -15 27 -5 0 -10 10 -12
22 -2 12 -12 27 -23 33 -11 5 -19 17 -17 27 2 10 -5 19 -17 23 -12 3 -21 10
-21 15 0 5 -12 23 -27 39 -49 51 -114 129 -143 169 -15 22 -43 50 -62 63 -39
27 -48 38 -42 54 3 6 -13 20 -36 30 -22 10 -39 23 -37 29 2 6 -13 21 -35 34
-21 13 -38 27 -38 33 0 5 -8 9 -19 9 -10 0 -21 9 -24 20 -3 12 -14 20 -26 20
-12 0 -21 4 -21 10 0 15 -42 50 -61 50 -9 0 -19 8 -21 18 -3 9 -23 26 -44 37
-22 11 -46 28 -55 37 -9 10 -30 18 -48 18 -17 0 -31 4 -31 8 0 5 -14 7 -30 6
-21 -1 -35 4 -45 19 -13 19 -17 20 -25 7 -7 -10 -12 -12 -17 -4 -5 6 -19 11
-33 10 -14 0 -24 4 -23 10 1 7 -8 9 -22 6 -15 -2 -31 3 -41 13 -14 13 -19 14
-25 3 -5 -7 -9 -8 -9 -2 0 6 -24 11 -57 13 -45 1 -62 6 -75 22 -10 12 -18 16
-18 10 0 -15 -30 -14 -62 3 -16 8 -28 11 -28 5 0 -5 -9 -9 -20 -9 -11 0 -20 5
-20 11 0 6 -8 9 -19 6 -22 -5 -54 11 -46 24 10 15 -5 10 -23 -8 -16 -16 -17
-15 -20 0 -4 18 -32 19 -44 3 -4 -6 -13 -5 -22 3 -11 9 -20 10 -35 1 -17 -8
-21 -8 -21 3 0 9 -14 14 -41 15 -23 1 -47 6 -54 12 -7 6 -15 6 -23 -2 -7 -7
-12 -8 -12 -2 0 5 -11 10 -25 10 -14 1 -25 -2 -25 -8 0 -5 -7 -2 -16 6 -9 10
-24 14 -39 10 -13 -3 -26 0 -30 6 -6 9 -9 9 -15 0 -5 -8 -13 -9 -21 -4 -8 4
-50 8 -94 9 -44 0 -86 4 -94 9 -8 5 -16 4 -22 -5 -6 -11 -9 -10 -15 4 -3 9
-12 17 -19 17 -7 0 -16 -8 -19 -17 -6 -14 -9 -15 -16 -4 -4 8 -15 11 -23 8 -9
-3 -18 1 -21 9 -5 13 -8 14 -20 1 -11 -10 -27 -12 -60 -7 -25 4 -46 3 -46 -2
0 -5 -9 -4 -19 2 -26 13 -29 13 -34 -7 -3 -13 -5 -14 -6 -3 -1 20 -98 21 -110
2 -6 -11 -11 -10 -25 3 -9 9 -16 11 -16 5 0 -6 -5 -8 -10 -5 -6 4 -17 1 -25
-5 -11 -9 -15 -9 -15 -1 0 6 -4 11 -10 11 -5 0 -10 -8 -10 -17 0 -11 -3 -14
-8 -7 -4 6 -17 10 -30 9 -13 -1 -25 2 -28 7 -3 5 -11 5 -17 0 -13 -10 -13 -10
-110 -14 -44 -2 -71 -8 -76 -17 -6 -9 -18 -12 -36 -7 -19 5 -31 3 -37 -6 -7
-10 -11 -9 -19 5 -13 22 -36 22 -43 -1 -5 -15 -16 -18 -64 -16 -31 1 -69 -5
-83 -12 -15 -7 -29 -11 -32 -8 -2 3 -25 -7 -50 -21 -31 -17 -48 -21 -53 -14
-4 8 -9 7 -15 -2 -8 -12 -11 -11 -19 1 -14 22 -12 49 5 66 8 9 15 24 15 35 0
11 7 22 15 25 8 4 15 17 15 30 0 13 5 24 10 24 6 0 10 7 10 16 0 8 3 13 8 11
4 -3 8 5 9 16 3 43 8 62 21 75 6 8 17 33 23 58 6 24 15 44 20 44 5 0 6 7 3 15
-3 8 1 22 10 31 9 8 14 20 10 25 -3 5 2 12 10 15 9 3 14 10 11 14 -3 5 -1 11
4 15 6 3 8 12 4 20 -3 8 -1 15 4 15 6 0 18 28 28 63 10 34 22 67 26 72 5 6 11
30 15 53 4 23 10 42 15 42 5 0 9 11 9 25 0 14 5 25 11 25 7 0 9 9 5 24 -3 13
-2 26 3 28 6 2 12 16 15 31 3 16 9 34 14 40 14 19 22 71 12 87 -6 9 -3 18 8
26 12 9 17 28 17 73 0 39 4 60 11 57 6 -2 11 13 13 38 1 22 6 43 12 44 6 3 5
9 -2 18 -9 11 -9 14 0 14 7 0 10 8 7 18 -3 9 0 29 8 43 8 15 13 51 11 82 -1
31 3 58 8 60 5 1 10 26 11 55 0 29 4 52 8 52 3 0 5 27 4 59 -2 33 0 65 5 72 4
8 3 19 -2 26 -6 7 -7 18 -3 25 12 19 13 37 3 44 -5 3 -7 9 -4 13 2 5 7 31 9
59 4 37 2 53 -9 62 -11 9 -12 16 -5 25 6 7 8 19 4 28 -3 8 0 18 6 22 8 5 7 12
-3 23 -10 12 -15 37 -14 79 2 43 -2 64 -11 68 -10 4 -10 10 -2 25 7 13 8 26 2
33 -12 15 -34 108 -28 114 3 3 -1 18 -9 34 -8 15 -12 34 -9 42 2 7 -2 20 -10
27 -9 7 -13 16 -10 22 3 5 0 15 -6 23 -8 10 -9 15 -2 15 6 0 2 16 -10 35 -11
20 -18 39 -14 42 3 4 -1 14 -9 23 -8 9 -16 27 -17 41 -2 13 -8 29 -14 34 -7 6
-17 28 -24 50 -7 22 -17 45 -24 50 -20 18 -47 75 -41 85 3 6 -1 10 -10 10 -9
0 -15 6 -12 13 2 6 -10 30 -27 52 -17 21 -31 42 -31 45 0 3 -14 18 -32 35 -18
16 -33 36 -33 43 0 23 -111 152 -130 152 -6 0 -10 5 -10 11 0 11 -37 49 -49
49 -13 1 -80 68 -74 74 3 3 -3 6 -14 6 -12 0 -33 14 -47 31 -14 17 -30 27 -36
24 -5 -3 -10 1 -10 9 0 9 -6 16 -13 16 -19 0 -58 35 -49 45 4 4 -3 4 -16 1
-16 -6 -24 -3 -29 11 -10 28 -36 43 -60 38 -13 -3 -23 -1 -23 5 0 8 -38 23
-63 25 -5 0 -14 7 -20 16 -12 16 -18 19 -37 19 -5 0 -10 7 -10 15 0 14 -7 17
-55 19 -11 1 -19 7 -17 14 1 9 -5 11 -23 6 -21 -5 -25 -3 -25 15 0 14 -5 19
-15 15 -8 -4 -22 -1 -30 6 -8 7 -22 10 -31 6 -8 -3 -25 0 -37 6 -12 7 -25 11
-29 10 -5 -1 -8 3 -8 9 0 7 -10 9 -24 5 -14 -3 -28 -1 -31 5 -4 6 -13 8 -21 5
-8 -3 -14 -1 -14 4 0 5 -7 7 -15 4 -8 -4 -21 -1 -28 4 -8 7 -18 7 -27 2 -19
-12 -30 -3 -30 23 0 17 -2 19 -9 8 -6 -10 -17 -11 -37 -6 -16 4 -44 8 -63 9
-19 1 -36 7 -39 14 -2 7 -10 9 -20 4 -24 -12 -41 -9 -51 7 -6 9 -16 11 -32 5
-13 -4 -46 -8 -74 -8 -27 -1 -55 -4 -62 -9 -6 -4 -18 0 -26 8 -18 18 -37 20
-37 4 0 -6 -9 -9 -20 -6 -11 3 -20 2 -20 -2 0 -9 -61 -1 -75 10 -7 5 -16 0
-23 -12z"/>
</g>
</svg>
