<?xml version="1.0" standalone="no"?>
<!DOCTYPE svg PUBLIC "-//W3C//DTD SVG 20010904//EN"
 "http://www.w3.org/TR/2001/REC-SVG-20010904/DTD/svg10.dtd">
<svg version="1.0" xmlns="http://www.w3.org/2000/svg"
 width="1280.000000pt" height="1072.000000pt" viewBox="0 0 1280.000000 1072.000000"
 preserveAspectRatio="xMidYMid meet">
<metadata>
Created by potrace 1.15, written by Peter Selinger 2001-2017
</metadata>
<g transform="translate(0.000000,1072.000000) scale(0.100000,-0.100000)"
fill="#000000" stroke="none">
<path d="M6364 10673 c-60 -141 -262 -638 -341 -838 -127 -321 -321 -818 -343
-880 -10 -27 -46 -122 -80 -210 -77 -201 -218 -578 -366 -979 -63 -170 -116
-311 -117 -312 -2 -2 -75 12 -163 31 -949 204 -1984 239 -2964 99 -567 -81
-1195 -232 -1750 -421 -207 -70 -207 -70 -223 -111 -14 -34 -14 -38 1 -53 9
-9 170 -123 357 -254 187 -131 572 -406 855 -610 724 -522 1493 -1066 2155
-1524 121 -84 221 -156 223 -160 1 -4 -42 -97 -97 -207 -497 -996 -782 -2032
-866 -3149 -16 -216 -19 -482 -4 -430 6 22 7 10 5 -40 -2 -38 -1 -64 1 -57 3
6 9 12 14 12 5 0 4 -10 -2 -23 -12 -21 -11 -21 6 -7 17 14 18 13 13 -8 -6 -20
-4 -22 10 -10 13 11 15 11 10 -2 -7 -20 16 -42 30 -28 7 7 12 3 17 -11 4 -12
11 -18 17 -15 7 5 9 2 5 -8 -3 -10 0 -15 11 -14 10 0 16 -6 16 -16 -1 -9 4
-14 11 -12 7 3 16 0 21 -7 5 -8 3 -10 -7 -5 -8 4 -3 -1 11 -11 14 -10 55 -46
91 -81 l67 -63 113 57 c644 321 1789 1026 2719 1672 l145 100 205 -202 c227
-224 377 -357 598 -534 680 -543 1457 -969 2253 -1236 107 -36 227 -74 267
-85 65 -18 72 -18 60 -4 -12 15 -11 15 9 5 30 -16 38 -15 23 3 -15 18 0 20 19
3 11 -11 13 -10 8 4 -4 13 -2 15 10 11 12 -5 14 -3 8 7 -6 10 -4 12 8 7 10 -3
24 -4 32 -1 12 5 13 9 4 20 -10 12 -9 13 5 8 9 -3 16 -1 16 6 0 6 5 8 10 5 6
-3 10 -1 10 5 0 6 5 8 10 5 6 -3 10 -2 10 4 0 6 10 15 21 22 17 9 20 8 14 -2
-9 -14 5 -7 50 26 17 12 59 37 94 55 35 19 65 40 68 47 3 7 -7 66 -22 131 -29
126 -250 1008 -284 1132 -11 41 -32 120 -46 175 -15 55 -54 201 -87 325 -33
124 -67 250 -74 280 -8 30 -23 84 -33 120 -10 36 -37 133 -60 215 -48 174
-172 618 -237 849 -25 87 -41 162 -37 166 4 4 60 29 123 55 150 64 550 262
715 355 998 559 1830 1271 2601 2225 196 242 454 602 454 632 0 11 -5 35 -11
53 l-12 32 -621 -6 c-341 -3 -981 -8 -1421 -11 -440 -3 -1155 -13 -1589 -21
-434 -8 -791 -12 -794 -10 -2 3 -15 76 -29 163 -187 1213 -658 2413 -1331
3396 -74 107 -96 133 -67 77 25 -49 9 -34 -30 28 -20 31 -34 47 -30 35 4 -14
2 -23 -4 -23 -6 0 -11 6 -11 14 0 8 -4 18 -10 21 -6 3 -7 -1 -4 -9 3 -9 1 -16
-4 -16 -6 0 -13 8 -15 18 -4 15 -5 14 -6 -2 -1 -20 -1 -20 -17 0 -8 10 -13 13
-9 7 3 -7 1 -13 -4 -13 -6 0 -11 6 -11 13 0 8 -3 8 -8 2 -10 -15 -31 -12 -42
5 -8 12 -10 12 -11 -5 l0 -20 -9 20 c-6 13 -9 15 -9 5 -1 -13 -2 -13 -11 0 -9
13 -10 13 -10 0 0 -13 -1 -13 -10 0 -9 13 -10 13 -10 0 0 -9 -3 -11 -8 -5 -4
6 -18 10 -32 10 -14 0 -59 5 -100 12 -115 18 -118 18 -136 -24z m524 -69 c7
-14 8 -23 2 -19 -15 9 -32 45 -22 45 5 0 14 -12 20 -26z m-49 -1674 c198 -731
185 -685 420 -1510 262 -917 248 -880 356 -965 116 -91 229 -204 305 -306 14
-18 33 -41 43 -51 9 -10 17 -22 17 -28 0 -5 5 -10 10 -10 6 0 10 -7 10 -15 0
-8 5 -15 10 -15 6 0 10 -6 10 -14 0 -16 73 -43 295 -112 497 -152 968 -234
1499 -262 l129 -7 -294 -221 c-261 -197 -595 -451 -1204 -916 -104 -79 -195
-155 -202 -169 -7 -13 -26 -62 -44 -109 -17 -47 -53 -127 -80 -179 -54 -103
-168 -281 -181 -281 -4 0 -8 -6 -8 -14 0 -8 -6 -16 -12 -19 -19 -6 -15 -319 6
-497 69 -582 214 -1116 450 -1662 9 -21 14 -38 11 -38 -3 0 -69 53 -148 118
-363 301 -818 657 -1310 1023 -199 148 -404 303 -454 345 -51 41 -97 73 -102
70 -9 -6 -207 8 -261 18 -14 2 -43 7 -65 10 -22 3 -55 10 -72 15 -18 5 -33 7
-33 5 0 -3 -6 -2 -12 3 -7 4 -23 9 -36 11 -12 1 -35 8 -50 14 -15 6 -30 12
-34 13 -5 2 -11 4 -15 5 -5 2 -12 4 -18 5 -5 1 -23 7 -38 13 -37 16 -36 16
-103 -14 -33 -14 -135 -55 -229 -91 -484 -187 -882 -405 -1268 -695 -138 -105
-275 -218 -369 -307 -38 -35 -68 -58 -68 -52 0 6 14 45 31 88 38 97 311 824
389 1038 32 88 97 266 145 395 128 348 220 615 244 702 19 71 19 80 5 120 -51
146 -88 387 -88 581 l0 98 -151 202 c-334 444 -678 800 -1073 1111 l-104 81
54 7 c29 3 152 6 273 7 221 1 795 13 1452 31 l352 10 94 64 c104 71 261 156
322 176 22 7 45 16 50 20 6 4 28 13 50 20 22 7 44 16 49 20 5 5 14 6 21 4 7
-3 16 -1 19 5 4 6 12 8 19 6 24 -8 136 148 255 352 328 565 545 1136 677 1786
10 48 19 86 20 85 2 -2 17 -55 34 -118z m-4172 -8292 c-3 -8 -6 -5 -6 6 -1 11
2 17 5 13 3 -3 4 -12 1 -19z"/>
</g>
</svg>
