<?xml version="1.0" standalone="no"?>
<!DOCTYPE svg PUBLIC "-//W3C//DTD SVG 20010904//EN"
 "http://www.w3.org/TR/2001/REC-SVG-20010904/DTD/svg10.dtd">
<svg version="1.0" xmlns="http://www.w3.org/2000/svg"
 width="1266.000000pt" height="1280.000000pt" viewBox="0 0 1266.000000 1280.000000"
 preserveAspectRatio="xMidYMid meet">
<metadata>
Created by potrace 1.15, written by Peter Selinger 2001-2017
</metadata>
<g transform="translate(0.000000,1280.000000) scale(0.100000,-0.100000)"
fill="#000000" stroke="none">
<path d="M5547 12714 c-9 -98 -42 -260 -72 -351 -13 -39 -58 -147 -98 -240
-88 -200 -115 -278 -131 -381 l-12 -76 -68 -39 -69 -39 -46 27 c-124 71 -281
133 -406 159 l-65 14 -51 -57 c-71 -78 -149 -199 -205 -313 -37 -77 -51 -98
-68 -99 -11 0 -47 -4 -79 -8 l-58 -7 -77 75 c-75 74 -112 98 -395 266 -148 87
-202 130 -339 267 l-117 117 -35 -69 c-56 -112 -70 -196 -63 -379 8 -210 59
-431 155 -667 l20 -50 -46 -61 c-43 -55 -54 -63 -119 -86 l-71 -26 -89 71
c-229 185 -476 317 -673 363 -86 19 -226 22 -287 6 l-41 -11 34 -58 c95 -155
158 -317 200 -512 57 -262 85 -359 130 -448 l43 -85 -33 -72 -33 -72 -97 -12
c-170 -22 -414 -100 -435 -140 -29 -53 -21 -336 14 -483 l13 -58 -56 -55 c-50
-49 -61 -55 -87 -50 -83 16 -307 16 -455 0 -244 -26 -415 -21 -613 21 -38 8
-70 14 -73 14 -10 0 -3 -91 12 -141 67 -227 322 -503 667 -722 l57 -37 0 -73
c0 -69 -2 -75 -43 -135 l-42 -63 -255 -3 c-264 -3 -333 -11 -498 -56 -144 -40
-308 -134 -361 -208 l-21 -30 116 -56 c159 -77 288 -164 429 -291 205 -185
325 -272 397 -290 31 -8 32 -9 48 -104 l14 -73 -57 -49 c-101 -89 -287 -334
-287 -379 0 -45 186 -289 287 -377 l57 -50 -15 -79 -14 -78 -74 -38 c-95 -49
-182 -115 -346 -264 -152 -137 -263 -213 -433 -296 l-122 -60 21 -30 c26 -35
125 -110 189 -143 175 -88 410 -128 729 -124 l195 3 43 -64 c41 -61 43 -68 43
-136 l0 -72 -100 -67 c-334 -222 -557 -471 -624 -694 -15 -50 -22 -141 -12
-141 3 0 35 6 73 14 198 42 369 47 613 21 147 -16 370 -16 455 0 26 5 37 -2
87 -49 l57 -54 -14 -59 c-35 -148 -43 -430 -15 -484 21 -39 266 -116 444 -140
l89 -12 34 -73 33 -73 -34 -63 c-48 -87 -77 -182 -126 -409 -52 -240 -114
-407 -214 -571 l-34 -58 41 -11 c69 -19 203 -14 300 11 201 50 437 177 655
354 43 34 83 65 88 69 6 3 43 -6 82 -21 62 -24 76 -34 116 -86 l45 -58 -21
-52 c-96 -237 -147 -457 -154 -666 -7 -184 6 -266 62 -379 l36 -73 77 83 c110
119 240 223 392 313 261 153 303 182 380 257 l78 75 58 -7 c32 -4 68 -8 79 -8
17 -1 31 -22 68 -98 56 -115 134 -236 205 -314 l51 -57 65 14 c125 26 323 106
433 175 15 9 30 5 88 -28 l69 -39 12 -77 c16 -103 41 -179 130 -380 40 -93 84
-201 98 -240 30 -91 63 -250 72 -356 l8 -82 70 35 c162 81 304 261 418 526 47
112 111 299 128 380 l11 50 67 20 c83 25 79 25 162 0 l67 -20 11 -50 c17 -81
81 -268 128 -380 114 -265 256 -445 418 -526 l70 -35 7 77 c19 202 60 349 166
589 94 213 119 287 135 392 l12 77 69 40 c58 33 72 37 88 27 110 -69 308 -149
433 -175 l65 -14 51 57 c71 78 149 199 205 313 37 77 51 98 68 99 11 0 47 4
79 8 l58 7 78 -75 c77 -75 119 -104 380 -257 153 -90 283 -194 392 -314 l76
-83 37 74 c47 97 66 188 66 331 0 205 -56 459 -158 714 l-21 52 45 58 c40 52
54 62 116 86 39 15 76 24 82 21 5 -4 45 -35 88 -69 220 -178 473 -314 668
-359 86 -19 226 -22 287 -6 l41 11 -49 82 c-79 134 -147 312 -185 488 -57 262
-85 359 -130 448 l-43 85 33 72 33 72 89 12 c178 24 423 101 444 140 28 54 20
336 -15 484 l-14 59 57 54 c50 47 61 54 87 49 85 -16 308 -16 455 0 244 26
415 21 613 -21 38 -8 70 -14 73 -14 9 0 3 79 -11 133 -56 216 -282 472 -612
694 l-113 75 0 72 c0 67 2 75 43 134 l42 63 255 3 c255 3 322 10 477 50 150
39 328 139 382 214 l21 30 -122 60 c-170 83 -281 159 -433 296 -164 149 -251
215 -346 264 l-74 38 -14 78 -15 78 76 71 c42 40 98 100 126 133 58 73 142
205 142 225 0 44 -187 290 -287 378 l-57 49 14 73 c16 95 17 96 48 104 73 18
198 111 418 309 121 109 255 198 408 272 l116 56 -21 30 c-53 74 -217 168
-361 208 -165 45 -234 53 -498 56 l-255 3 -42 63 c-41 59 -43 66 -43 135 l0
73 98 64 c340 226 570 484 627 703 14 54 20 133 11 133 -3 0 -35 -6 -73 -14
-198 -42 -369 -47 -613 -21 -148 16 -372 16 -455 0 -26 -5 -37 1 -87 50 l-56
55 13 59 c34 145 42 430 14 482 -21 40 -266 118 -435 140 l-97 12 -33 73 -34
73 34 63 c48 87 77 182 126 407 54 253 108 400 208 563 l41 68 -42 11 c-104
28 -287 6 -435 -52 -183 -72 -420 -219 -574 -356 l-37 -32 -73 25 c-67 24 -77
31 -118 86 -25 33 -44 65 -42 71 2 7 19 53 37 103 88 235 135 464 135 652 0
143 -19 234 -65 329 l-36 73 -117 -118 c-137 -137 -191 -180 -339 -267 -283
-168 -320 -192 -395 -266 l-77 -75 -58 7 c-32 4 -68 8 -79 8 -17 1 -31 22 -68
99 -56 114 -134 235 -205 313 l-51 57 -65 -14 c-125 -26 -282 -88 -406 -159
l-46 -27 -69 39 -69 39 -12 77 c-16 105 -42 180 -135 392 -44 99 -91 218 -104
265 -28 96 -64 293 -64 351 0 49 -12 50 -94 7 -93 -49 -217 -180 -294 -310
-91 -155 -198 -423 -233 -588 l-11 -50 -67 -20 c-38 -11 -74 -20 -81 -20 -7 0
-43 9 -81 20 l-67 20 -11 50 c-17 81 -81 268 -128 380 -109 256 -251 438 -402
519 -85 45 -87 44 -94 -45z"/>
</g>
</svg>
