<?xml version="1.0" standalone="no"?>
<!DOCTYPE svg PUBLIC "-//W3C//DTD SVG 20010904//EN"
 "http://www.w3.org/TR/2001/REC-SVG-20010904/DTD/svg10.dtd">
<svg version="1.0" xmlns="http://www.w3.org/2000/svg"
 width="1280.000000pt" height="1280.000000pt" viewBox="0 0 1280.000000 1280.000000"
 preserveAspectRatio="xMidYMid meet">
<metadata>
Created by potrace 1.15, written by Peter Selinger 2001-2017
</metadata>
<g transform="translate(0.000000,1280.000000) scale(0.100000,-0.100000)"
fill="#000000" stroke="none">
<path d="M6100 12794 c-30 -2 -118 -8 -195 -14 -1856 -142 -3529 -1069 -4655
-2580 -649 -871 -1069 -1923 -1199 -3000 -39 -319 -46 -442 -46 -800 0 -430
20 -676 85 -1072 269 -1620 1164 -3075 2510 -4078 797 -594 1746 -997 2728
-1160 395 -65 641 -84 1072 -85 358 0 479 7 800 46 1077 130 2129 550 3000
1199 1165 868 1997 2078 2370 3445 109 400 169 740 212 1210 17 184 17 806 0
990 -43 470 -102 808 -212 1210 -519 1903 -1936 3492 -3775 4233 -582 234
-1169 374 -1835 437 -154 15 -731 28 -860 19z m848 -239 c784 -74 1487 -271
2177 -611 1717 -844 2960 -2459 3334 -4329 220 -1103 135 -2254 -244 -3306
-404 -1120 -1145 -2122 -2100 -2842 -836 -630 -1804 -1035 -2826 -1181 -331
-48 -508 -60 -889 -60 -381 0 -558 12 -889 60 -1600 229 -3064 1098 -4044
2399 -712 945 -1121 2019 -1228 3225 -17 191 -17 791 0 980 29 330 87 689 156
970 494 2014 1964 3649 3915 4355 577 208 1107 314 1810 359 124 8 676 -4 828
-19z"/>
<path d="M6201 12219 c-396 -35 -806 -186 -1136 -418 -509 -357 -899 -936
-1061 -1574 -221 -873 -15 -1820 544 -2502 172 -210 276 -309 532 -508 612
-478 967 -1095 1061 -1847 20 -158 14 -473 -10 -625 -71 -431 -229 -803 -492
-1155 -631 -844 -1746 -1240 -2759 -980 -713 184 -1270 691 -1511 1379 -124
352 -151 749 -78 1130 102 527 438 977 909 1219 184 95 316 140 525 179 127
24 424 23 560 -1 229 -41 458 -135 628 -256 170 -122 338 -321 435 -515 158
-318 191 -708 86 -1040 -166 -528 -711 -867 -1257 -781 -220 35 -379 113 -528
258 -118 116 -209 276 -251 444 -30 122 -30 313 1 429 69 261 253 456 506 535
96 30 264 38 365 16 377 -80 586 -492 419 -826 -169 -337 -646 -345 -801 -13
-26 56 -32 81 -36 164 -5 104 -15 126 -51 114 -43 -13 -66 -184 -40 -294 40
-175 201 -326 388 -366 92 -19 152 -19 249 1 181 37 350 164 432 324 51 99 65
169 65 315 0 118 -4 152 -23 215 -78 251 -271 438 -528 512 -114 33 -343 33
-458 0 -352 -101 -587 -358 -661 -722 -26 -125 -16 -349 19 -480 55 -199 181
-404 328 -531 218 -190 467 -279 783 -279 223 0 406 43 599 142 371 191 623
536 702 963 26 140 26 421 0 560 -120 645 -609 1147 -1251 1284 -168 36 -265
44 -467 38 -269 -7 -431 -40 -671 -136 -292 -117 -582 -332 -777 -577 -137
-172 -263 -395 -323 -574 -118 -351 -153 -785 -91 -1145 123 -725 570 -1348
1214 -1693 639 -342 1494 -388 2220 -120 405 151 735 362 1040 668 286 285
495 603 639 970 93 236 135 404 181 729 44 310 96 503 203 756 280 662 871
1216 1532 1434 279 92 494 125 810 125 221 1 322 -8 505 -45 797 -156 1486
-677 1853 -1399 128 -252 220 -539 253 -793 20 -151 14 -495 -10 -627 -41
-220 -99 -397 -192 -587 -268 -548 -750 -954 -1334 -1123 -174 -51 -278 -64
-485 -64 -215 0 -317 14 -501 70 -284 85 -515 225 -729 439 -66 66 -150 163
-188 215 -79 111 -193 337 -236 465 -97 295 -101 588 -11 882 71 234 229 475
415 636 147 127 289 210 463 271 139 48 245 66 387 67 372 1 703 -164 924
-461 156 -210 238 -484 211 -706 -12 -100 -23 -145 -51 -222 -109 -299 -366
-523 -674 -589 -95 -20 -256 -12 -350 17 -205 64 -365 200 -455 385 -56 114
-73 198 -67 315 10 165 59 273 177 390 84 84 166 130 278 156 272 64 550 -141
569 -421 4 -58 1 -83 -20 -142 -40 -116 -89 -173 -219 -253 -50 -31 -61 -57
-33 -80 35 -29 192 40 275 122 97 96 142 204 143 348 0 78 -4 108 -26 168 -94
267 -346 436 -625 419 -188 -11 -348 -89 -484 -236 -73 -79 -147 -214 -174
-316 -94 -365 107 -772 471 -953 359 -179 783 -102 1099 198 104 99 167 184
227 305 143 292 153 598 29 908 -75 187 -169 326 -315 465 -273 262 -624 388
-1004 361 -334 -23 -665 -174 -926 -421 -246 -233 -408 -527 -474 -863 -117
-592 144 -1268 654 -1694 219 -182 488 -320 762 -391 180 -46 260 -55 483 -55
242 0 342 13 540 71 810 234 1434 882 1636 1699 41 168 55 272 61 466 7 213
-7 384 -43 554 -13 60 -29 135 -35 165 -33 161 -138 428 -240 615 -348 632
-894 1098 -1562 1334 -316 112 -601 161 -947 162 -430 1 -747 -67 -1208 -260
-350 -146 -806 -221 -1172 -192 -498 40 -910 180 -1305 443 -362 241 -674 619
-869 1054 -333 742 -305 1597 75 2323 109 209 239 389 414 578 642 689 1666
879 2510 464 670 -330 1058 -897 1082 -1581 13 -379 -84 -717 -296 -1031 -197
-293 -450 -492 -756 -595 -288 -96 -607 -97 -895 -3 -220 73 -430 210 -593
387 -307 334 -376 859 -167 1273 71 140 189 287 297 369 85 64 230 135 333
162 114 31 339 32 445 4 323 -87 552 -299 626 -581 84 -321 -67 -678 -346
-818 -86 -43 -162 -60 -265 -61 -280 0 -512 187 -551 444 -29 187 72 385 236
466 133 66 273 58 409 -22 62 -37 90 -38 102 -2 4 15 -4 31 -37 65 -87 88
-199 133 -335 133 -202 0 -370 -110 -464 -305 -53 -110 -63 -154 -64 -270 -1
-176 48 -304 166 -430 205 -219 524 -294 807 -189 236 88 426 311 498 583 37
137 36 315 0 452 -77 291 -288 522 -594 648 -281 116 -616 105 -885 -30 -127
-63 -186 -106 -294 -213 -185 -186 -300 -395 -356 -646 -19 -87 -23 -134 -23
-275 0 -189 10 -255 61 -413 119 -365 386 -656 769 -837 183 -87 332 -127 552
-147 336 -31 703 62 993 250 263 170 486 429 635 737 162 335 225 708 181
1066 -16 127 -17 135 -52 269 -119 473 -415 875 -864 1175 -440 294 -985 431
-1519 384z m-201 -5414 c296 -75 615 -106 882 -86 87 7 181 16 207 20 l49 8
-141 -141 c-155 -154 -272 -294 -376 -450 -111 -167 -212 -353 -262 -483 -13
-35 -26 -63 -29 -63 -3 0 -15 48 -28 108 -32 147 -119 405 -189 559 -84 185
-224 417 -330 549 -18 23 -33 44 -33 47 0 3 26 -3 58 -14 31 -11 118 -35 192
-54z"/>
</g>
</svg>
